<svg xmlns="http://www.w3.org/2000/svg" viewBox="0 0 64 64"><circle cx="32" cy="32" r="32" /><path d="M28 35.3L25.7 33h-3l-5.8-5.8-.1-.15-.32 1.13 5.8 5.8h3l1.7 1.7-.16 6.4 3.44 2.58v3.23c.33 0 .66.05 1 .06v-3.8l-3.43-2.57zm19.85-5.4H45.7l-2.3-2.28v-1.3L45.8 24l-.54-.88-2.84 2.84v2.13l2.87 2.86H48c-.08-.37-.1-.7-.15-1.04zm-11.93 4.6H31l-3.43-3.43H26l1.57-1.58h4.58v-1.56l-2.36-2.37 1.2-1.2h2V21.5l1.92-1.92L31.4 16a16.23 16.23 0 0 0-2 .2v1.4l-1.2 1.24L26.4 17l-1 .4 2.8 2.8 2.22-2.2v-1.38h.15l2.93 2.93-1.5 1.5v2.28h-1.43l-2.22 2.2 2.78 2.78v.15h-4l-3.57 3.58h3.57l3.43 3.43h5.35a2.93 2.93 0 0 1 2 5l-1.68 2V45l-.86 1v1.66l1-.25v-1l.86-1v-2.5l1.42-1.7a3.92 3.92 0 0 0-2.78-6.7zM32 12a20 20 0 1 0 20 20 20 20 0 0 0-20-20zm0 38a18 18 0 1 1 18-18 18 18 0 0 1-18 18z" /></svg>