<?xml version="1.0" encoding="utf-8"?>
<!-- Generator: Adobe Illustrator 23.0.3, SVG Export Plug-In . SVG Version: 6.00 Build 0)  -->
<svg version="1.1" xmlns="http://www.w3.org/2000/svg" xmlns:xlink="http://www.w3.org/1999/xlink" x="0px" y="0px"
	 viewBox="0 0 283.46 283.46" style="enable-background:new 0 0 283.46 283.46;" xml:space="preserve">
<style type="text/css">
	.st0{display:none;}
	.st1{display:inline;}
	.st2{fill:#199BD8;}
	.st3{fill:none;stroke:#199BD8;stroke-width:0.3;stroke-miterlimit:10;}
	.st4{fill:none;stroke:#199BD8;stroke-width:0.2984;stroke-miterlimit:10;}
	.st5{display:inline;opacity:0.5;}
	.st6{fill:#81CFF4;}
	.st7{display:inline;opacity:0.5;fill:none;}
	.st8{fill:#FFFFFF;}
	.st9{fill:#EA5B0C;}
	.st10{display:inline;fill:#FF6600;}
	.st11{fill:#FF6600;}
	.st12{fill:#FF6600;stroke:#FFFFFF;stroke-width:8.858;stroke-miterlimit:10;}
	.st13{fill:none;stroke:#FFFFFF;stroke-width:8.8583;stroke-miterlimit:10;}
	.st14{display:inline;fill:none;stroke:#FF6600;stroke-width:8.8583;stroke-linejoin:bevel;stroke-miterlimit:10;}
	.st15{display:inline;fill:none;stroke:#FF6600;stroke-width:8.8583;stroke-miterlimit:10;}
</style>
<g id="Measurement_1_" class="st0">
	<g class="st1">
		<path class="st2" d="M141.73,0.6c37.7,0,73.14,14.68,99.8,41.34c26.66,26.66,41.34,62.1,41.34,99.8c0,37.7-14.68,73.14-41.34,99.8
			c-26.66,26.66-62.1,41.34-99.8,41.34c-37.7,0-73.14-14.68-99.8-41.34c-26.66-26.66-41.34-62.1-41.34-99.8
			c0-37.7,14.68-73.14,41.34-99.8C68.59,15.28,104.03,0.6,141.73,0.6 M141.73,0C63.46,0,0,63.46,0,141.73
			c0,78.28,63.46,141.73,141.73,141.73c78.28,0,141.73-63.46,141.73-141.73C283.46,63.46,220.01,0,141.73,0L141.73,0z"/>
	</g>
	<g class="st1">
		<path class="st2" d="M282.87,0.6v282.27H0.6V0.6H282.87 M283.46,0H0v283.46h283.46V0L283.46,0z"/>
	</g>
	<g class="st1">
		<line class="st3" x1="0" y1="0" x2="283.46" y2="0"/>
		<line class="st3" x1="0" y1="35.43" x2="283.46" y2="35.43"/>
		<line class="st3" x1="0" y1="70.87" x2="283.46" y2="70.87"/>
		<line class="st3" x1="0" y1="106.3" x2="283.46" y2="106.3"/>
		<line class="st3" x1="0" y1="141.73" x2="283.46" y2="141.73"/>
		<line class="st3" x1="0" y1="177.17" x2="283.46" y2="177.17"/>
		<line class="st3" x1="0" y1="212.6" x2="283.46" y2="212.6"/>
		<line class="st3" x1="0" y1="248.03" x2="283.46" y2="248.03"/>
		<line class="st3" x1="0" y1="283.46" x2="283.46" y2="283.46"/>
	</g>
	<g class="st1">
		<line class="st4" x1="0" y1="283.33" x2="0" y2="0"/>
		<line class="st4" x1="35.43" y1="283.33" x2="35.43" y2="0"/>
		<line class="st4" x1="70.87" y1="283.33" x2="70.87" y2="0"/>
		<line class="st4" x1="106.3" y1="283.33" x2="106.3" y2="0"/>
		<line class="st4" x1="141.73" y1="283.33" x2="141.73" y2="0"/>
		<line class="st4" x1="177.17" y1="283.33" x2="177.17" y2="0"/>
		<line class="st4" x1="212.6" y1="283.33" x2="212.6" y2="0"/>
		<line class="st4" x1="248.03" y1="283.33" x2="248.03" y2="0"/>
		<line class="st4" x1="283.46" y1="283.33" x2="283.46" y2="0"/>
	</g>
	<g class="st5">
		<g>
			<path class="st6" d="M283.43,144.71c0.02-1.03,0.04-2.06,0.04-3.09s-0.02-2.06-0.04-3.09V35.44h0.03V-0.11h-0.03h-35.54H35.55H0
				v35.55v212.58v35.33v0.21h283.46v-35.55h-0.03V144.71z M150.21,248.13h-16.96c-51.39-4.04-92.55-44.47-97.71-95.54v-21.71
				c5.08-50.28,45.06-90.26,95.34-95.33h21.7c50.17,5.06,90.07,44.87,95.3,94.99v22.4C242.57,203.84,201.49,244.1,150.21,248.13z
				 M247.88,35.55v12.28c-3.84-4.34-7.95-8.44-12.29-12.28H247.88z M35.55,35.55h12.32c-4.36,3.85-8.47,7.97-12.32,12.32V35.55z
				 M35.55,235.59c3.92,4.43,8.12,8.62,12.56,12.54H35.55V235.59z M235.36,248.13c4.43-3.9,8.61-8.07,12.52-12.49v12.49H235.36z"/>
		</g>
	</g>
	<path class="st7" d="M283.46,35.55V0h-0.03h-35.54H35.55H0v35.55v212.58v35.33v0.21h283.46v-35.55h-0.03V35.55H283.46z
		 M247.88,248.13H35.55V35.55h212.33V248.13z"/>
	<g class="st5">
	</g>
</g>
<g id="Grid" class="st0">
	<g class="st1">
	</g>
	<g class="st1">
	</g>
</g>
<g id="Square_outline" class="st0">
	<g class="st1">
		<rect x="8.85" y="8.85" class="st8" width="265.77" height="265.77"/>
		<path class="st9" d="M265.76,17.7v248.06H17.7V17.7H265.76 M283.46,0H0v283.46h283.46V0L283.46,0z"/>
	</g>
</g>
<g id="Square_orange" class="st0">
	<rect class="st10" width="283.46" height="283.46"/>
</g>
<g id="Circle_outline" class="st0">
	<g class="st1">
		
			<ellipse transform="matrix(0.7071 -0.7071 0.7071 0.7071 -58.7075 141.7325)" class="st8" cx="141.73" cy="141.73" rx="132.88" ry="132.88"/>
		<path class="st11" d="M141.73,17.7c33.13,0,64.28,12.9,87.7,36.33c23.43,23.43,36.33,54.57,36.33,87.7
			c0,33.13-12.9,64.28-36.33,87.7c-23.43,23.43-54.57,36.33-87.7,36.33c-33.13,0-64.28-12.9-87.7-36.33s-36.33-54.57-36.33-87.7
			s12.9-64.28,36.33-87.7C77.45,30.6,108.6,17.7,141.73,17.7 M141.73,0C63.46,0,0,63.46,0,141.73s63.46,141.73,141.73,141.73
			c78.28,0,141.73-63.46,141.73-141.73S220.01,0,141.73,0L141.73,0z"/>
	</g>
</g>
<g id="Circle_orange">
	<circle class="st11" cx="141.73" cy="141.73" r="141.73"/>
</g>
<g id="Plant_1">
	<polygon class="st12" points="115.16,234.75 168.31,234.75 186.02,172.74 97.44,172.74 	"/>
	<path class="st13" d="M136.47,140.13c-51.83,0-65.87-69.19-65.87-69.19c75.83,0,71.23,101.8,71.23,101.8s-2.3-66.31,53.11-66.31
		c0,0-7.66,44.43-50.04,44.43"/>
</g>
<g id="Plant_2" class="st0">
	<polyline class="st14" points="141.73,103.67 141.73,245.4 212.6,139.1 	"/>
	<line class="st15" x1="142.15" y1="139.76" x2="141.86" y2="139.76"/>
	<path class="st15" d="M141.73,139.1c0,0,70.02-27.45,0-97.43C119.74,61.01,84.51,117.12,141.73,139.1z"/>
	<path class="st15" d="M230.42,112.53c0,0,26.36,79.71-53.17,79.71C177.26,192.24,150.7,112.53,230.42,112.53z"/>
	<polyline class="st14" points="141.73,103.67 141.73,245.4 70.87,139.1 	"/>
	<path class="st15" d="M53.04,112.53c0,0-26.36,79.71,53.17,79.71C106.21,192.24,132.76,112.53,53.04,112.53z"/>
	<rect x="138.05" y="240.5" class="st10" width="7.37" height="7.37"/>
</g>
<g id="Plant_2_1_" class="st0">
	<rect x="138.05" y="240.5" class="st10" width="7.37" height="7.37"/>
</g>
</svg>
