<svg xmlns="http://www.w3.org/2000/svg" viewBox="0 0 32 32"><circle cx="16" cy="16" r="16" /><g ><path d="M22 14.25l-.56-.4 1.1-.43a6.24 6.24 0 0 0-.44-.9l-1.9.72-.1.88.64.46-.28.14-.57-.57-.72.7 1.72 1.72-1.33 1.92-.47 1.77-1.47 1.46-.85-1.33.24-.72-.1-.5-1-1.1-.37-.16a1.56 1.56 0 1 1 0-3.11h.18v.2l.6.5 2.27-.5.4-.5v-2l-.72-.45-1.17.57-.1-.34-.5-.3h-.86l.54-.33.2-.25.23-.6.46-.46h1.16l.37-.16.46-.5a8.53 8.53 0 0 0-1-.4h-1.2l-.36.14-.68.7-.32.7-1 .58-.18.2-.3.58.44.74h1.68l.23.5.67.24.96-.4v.8l-1.32.27v-.07l-.5-.5h-.68a2.55 2.55 0 0 0-.23 5.1l.66.73-.22.67v.43l1.32 2.05.45.05c.16 0 .32-.07.48-.12l1.84-1.85.14-.23.4-1.65 1.52-2.18-.06-.64-.68-.7.7-.36z"/><path d="M14.43 11l2.5-1.88A7.14 7.14 0 0 0 16 9h-.7l-1.14.85.77-.77a6.79 6.79 0 0 0-1.83.55v.57l.68.68zm-3.3 5.42l-.65-1.3-.78-.82h-.45a6.83 6.83 0 0 0-.2 1.2l.23-.16.34.34.65 1.3 1.2 1.24-.48 1-.57.57-.24.12a7.9 7.9 0 0 0 .62.81l.13-.07.82-.78.78-1.5-.1-.57zM16 6a10 10 0 1 0 10 10A10 10 0 0 0 16 6zm0 18a8 8 0 1 1 8-8 8 8 0 0 1-8 8z"/></g></svg>