<svg xmlns="http://www.w3.org/2000/svg" viewBox="0 0 64 64"><circle cx="32" cy="32" r="32" /><path d="M51.9 29.88l-.12-1.07-1-.5-3.3-1.7c-.2-.6-.45-1.17-.7-1.73l1.14-3.56.33-1-.68-.84a20.26 20.26 0 0 0-3-3l-.84-.68-1 .33-3.56 1.14-1.73-.7-1.7-3.33-.5-1-1.07-.12C33.4 12 32.7 12 32 12l-2.12.1-1.07.12-.5 1-1.7 3.3c-.6.2-1.17.45-1.73.7L21.3 16.1l-1-.33-.84.68a20.26 20.26 0 0 0-3 3l-.68.84.33 1 1.14 3.56-.7 1.73-3.33 1.7-1 .5-.12 1.07C12 30.6 12 31.3 12 32l.1 2.12.12 1.07 1 .5 3.33 1.7c.2.6.45 1.17.7 1.73l-1.14 3.56-.33 1 .68.84a20.26 20.26 0 0 0 3 3l.84.68 1-.33 3.56-1.14 1.73.7 1.7 3.33.5 1 1.07.12c.7.1 1.42.1 2.1.1l2.12-.1 1.07-.12.5-1 1.7-3.33c.6-.2 1.17-.45 1.73-.7l3.56 1.14 1 .33.84-.68a20.26 20.26 0 0 0 3-3l.68-.84-.33-1-1.14-3.56.7-1.73 3.33-1.7 1-.5.12-1.07c.1-.7.1-1.42.1-2.1l-.1-2.12zm-2 4L45.82 36a14.32 14.32 0 0 1-1.21 3l1.4 4.3a18.14 18.14 0 0 1-2.7 2.7L39 44.6a14.32 14.32 0 0 1-3 1.21l-2.1 4.08-1.9.1c-.64 0-1.28 0-1.9-.1L28 45.82a14.32 14.32 0 0 1-2.94-1.21L20.7 46a18.14 18.14 0 0 1-2.7-2.7l1.4-4.3a14.32 14.32 0 0 1-1.21-3l-4.08-2.1c-.1-.62-.1-1.26-.1-1.9s0-1.28.1-1.9L18.2 28a14.32 14.32 0 0 1 1.21-2.94L18 20.7a18.14 18.14 0 0 1 2.7-2.7l4.35 1.4A14.32 14.32 0 0 1 28 18.18l2.1-4.08c.62-.1 1.26-.1 1.9-.1s1.28 0 1.9.1l2.1 4.08a14.32 14.32 0 0 1 3 1.21l4.3-1.4a18.14 18.14 0 0 1 2.7 2.7l-1.4 4.35A14.32 14.32 0 0 1 45.82 28l4.08 2.1.1 1.9c0 .64 0 1.27-.1 1.9zM32 25a7 7 0 1 0 7 7 7 7 0 0 0-7-7zm0 12a5 5 0 1 1 5-5 5 5 0 0 1-5 5z" /></svg>