<svg xmlns="http://www.w3.org/2000/svg" viewBox="0 0 64 64"><circle cx="32" cy="32" r="32" /><path d="M41.58 21.53a2 2 0 0 0-2.81.33l-1 1.2h-6.4l-.92 1.16-4.25-3.36L25 21v-5h14v-2H14v2h9v5.28l-1.78.2L17 26.84l.6 5 4.25 3.35-.94 1.2 1.44 6.23-.94 1.2a2 2 0 0 0 .33 2.81l3.14 2.48L44.7 24zm-17 24.78L23 45.07l1.54-2-1.44-6.24 1.57-2-5.18-4.1-.4-3.4 3.2-4.06.73-.08v3A2 2 0 0 0 22 28a2 2 0 1 0 3-1.72v-3.22l.67-.08 5.16 4.08 1.56-2h5.13L26.3 39.24l.8.62L40.34 23.1l1.56 1.24zm13.065-7.426l.627-.78 9.57 7.7-.627.78zm4.148-4.76l.437-.9 9.334 4.54-.437.9zm-8.138 9.417l.8-.6 6.124 8.408-.8.6z" /></svg>