<?xml version="1.0" encoding="UTF-8"?>
<svg viewBox="0 0 32 32" xmlns="http://www.w3.org/2000/svg">
<title>phone_small</title>
<g data-name="Icons">
<g data-name="Phone">
<g data-name="Phone_small">
<circle cx="16" cy="16" r="16"  data-name="circle_bg_small"/>
<g data-name="Phone_small">
<path d="M12.5,9a.78.78,0,0,1,.78.78,8.73,8.73,0,0,0,.44,2.77.79.79,0,0,1-.19.8l-1.71,1.71a11.73,11.73,0,0,0,5.12,5.12l1.71-1.71a.77.77,0,0,1,.55-.22.73.73,0,0,1,.25,0,9.07,9.07,0,0,0,2.77.44.78.78,0,0,1,.78.78v2.71a.78.78,0,0,1-.78.78A13.22,13.22,0,0,1,9,9.78.78.78,0,0,1,9.78,9H12.5m0-2H9.78A2.79,2.79,0,0,0,7,9.78,15.24,15.24,0,0,0,22.22,25,2.79,2.79,0,0,0,25,22.22V19.51a2.79,2.79,0,0,0-2.78-2.78,7.06,7.06,0,0,1-2.15-.34,2.69,2.69,0,0,0-.87-.14,2.76,2.76,0,0,0-2,.81l-.61.6a10,10,0,0,1-2.29-2.29l.6-.61a2.77,2.77,0,0,0,.69-2.8,6.81,6.81,0,0,1-.35-2.18A2.79,2.79,0,0,0,12.5,7Z"  data-name="Phone_big"/>
</g>
</g>
</g>
</g>
</svg>
