<?xml version="1.0" encoding="utf-8"?>
<!-- Generator: Adobe Illustrator 23.0.3, SVG Export Plug-In . SVG Version: 6.00 Build 0)  -->
<svg version="1.1" xmlns="http://www.w3.org/2000/svg" xmlns:xlink="http://www.w3.org/1999/xlink" x="0px" y="0px"
	 viewBox="0 0 283.46 283.46" style="enable-background:new 0 0 283.46 283.46;" xml:space="preserve">
<style type="text/css">
	.st0{display:none;}
	.st1{display:inline;}
	.st2{fill:#199BD8;}
	.st3{fill:none;stroke:#199BD8;stroke-width:0.3;stroke-miterlimit:10;}
	.st4{fill:none;stroke:#199BD8;stroke-width:0.2984;stroke-miterlimit:10;}
	.st5{display:inline;opacity:0.5;}
	.st6{fill:#81CFF4;}
	.st7{display:inline;opacity:0.5;fill:none;}
	.st8{fill:#FFFFFF;}
	.st9{fill:#EA5B0C;}
	.st10{display:inline;fill:#FF6600;}
	.st11{fill:none;stroke:#FF6600;stroke-width:8.8583;stroke-miterlimit:10;}
	.st12{fill:#FFFFFF;stroke:#FFFFFF;stroke-width:8.8583;stroke-miterlimit:10;}
	.st13{fill:#FF6600;}
	.st14{fill:#FFFFFF;stroke:#FF6600;stroke-width:8.8583;stroke-miterlimit:10;}
	.st15{fill:#FFFFFF;stroke:#1D1D1B;stroke-miterlimit:10;}
</style>
<g id="Measurement_1_" class="st0">
	<g class="st1">
		<path class="st2" d="M141.73,0.6c37.7,0,73.14,14.68,99.8,41.34c26.66,26.66,41.34,62.1,41.34,99.8c0,37.7-14.68,73.14-41.34,99.8
			c-26.66,26.66-62.1,41.34-99.8,41.34c-37.7,0-73.14-14.68-99.8-41.34c-26.66-26.66-41.34-62.1-41.34-99.8
			c0-37.7,14.68-73.14,41.34-99.8C68.59,15.28,104.03,0.6,141.73,0.6 M141.73,0C63.46,0,0,63.46,0,141.73
			c0,78.28,63.46,141.73,141.73,141.73c78.28,0,141.73-63.46,141.73-141.73C283.46,63.46,220.01,0,141.73,0L141.73,0z"/>
	</g>
	<g class="st1">
		<path class="st2" d="M282.87,0.6v282.27H0.6V0.6H282.87 M283.46,0H0v283.46h283.46V0L283.46,0z"/>
	</g>
	<g class="st1">
		<line class="st3" x1="0" y1="0" x2="283.46" y2="0"/>
		<line class="st3" x1="0" y1="35.43" x2="283.46" y2="35.43"/>
		<line class="st3" x1="0" y1="70.87" x2="283.46" y2="70.87"/>
		<line class="st3" x1="0" y1="106.3" x2="283.46" y2="106.3"/>
		<line class="st3" x1="0" y1="141.73" x2="283.46" y2="141.73"/>
		<line class="st3" x1="0" y1="177.17" x2="283.46" y2="177.17"/>
		<line class="st3" x1="0" y1="212.6" x2="283.46" y2="212.6"/>
		<line class="st3" x1="0" y1="248.03" x2="283.46" y2="248.03"/>
		<line class="st3" x1="0" y1="283.46" x2="283.46" y2="283.46"/>
	</g>
	<g class="st1">
		<line class="st4" x1="0" y1="283.33" x2="0" y2="0"/>
		<line class="st4" x1="35.43" y1="283.33" x2="35.43" y2="0"/>
		<line class="st4" x1="70.87" y1="283.33" x2="70.87" y2="0"/>
		<line class="st4" x1="106.3" y1="283.33" x2="106.3" y2="0"/>
		<line class="st4" x1="141.73" y1="283.33" x2="141.73" y2="0"/>
		<line class="st4" x1="177.17" y1="283.33" x2="177.17" y2="0"/>
		<line class="st4" x1="212.6" y1="283.33" x2="212.6" y2="0"/>
		<line class="st4" x1="248.03" y1="283.33" x2="248.03" y2="0"/>
		<line class="st4" x1="283.46" y1="283.33" x2="283.46" y2="0"/>
	</g>
	<g class="st5">
		<g>
			<path class="st6" d="M283.43,144.71c0.02-1.03,0.04-2.06,0.04-3.09s-0.02-2.06-0.04-3.09V35.44h0.03V-0.11h-0.03h-35.54H35.55H0
				v35.55v212.58v35.33v0.21h283.46v-35.55h-0.03V144.71z M150.21,248.13h-16.96c-51.39-4.04-92.55-44.47-97.71-95.54v-21.71
				c5.08-50.28,45.06-90.26,95.34-95.33h21.7c50.17,5.06,90.07,44.87,95.3,94.99v22.4C242.57,203.84,201.49,244.1,150.21,248.13z
				 M247.88,35.55v12.28c-3.84-4.34-7.95-8.44-12.29-12.28H247.88z M35.55,35.55h12.32c-4.36,3.85-8.47,7.97-12.32,12.32V35.55z
				 M35.55,235.59c3.92,4.43,8.12,8.62,12.56,12.54H35.55V235.59z M235.36,248.13c4.43-3.9,8.61-8.07,12.52-12.49v12.49H235.36z"/>
		</g>
	</g>
	<path class="st7" d="M283.46,35.55V0h-0.03h-35.54H35.55H0v35.55v212.58v35.33v0.21h283.46v-35.55h-0.03V35.55H283.46z
		 M247.88,248.13H35.55V35.55h212.33V248.13z"/>
	<g class="st5">
	</g>
</g>
<g id="Grid" class="st0">
	<g class="st1">
	</g>
	<g class="st1">
	</g>
</g>
<g id="Square_outline" class="st0">
	<g class="st1">
		<rect x="8.85" y="8.85" class="st8" width="265.77" height="265.77"/>
		<path class="st9" d="M265.76,17.7v248.06H17.7V17.7H265.76 M283.46,0H0v283.46h283.46V0L283.46,0z"/>
	</g>
</g>
<g id="Square_orange" class="st0">
	<rect class="st10" width="283.46" height="283.46"/>
</g>
<g id="Circle_orange" class="st0">
	<circle class="st10" cx="141.73" cy="141.73" r="141.73"/>
</g>
<g id="Circle_outline">
	<g>
		<circle class="st8" cx="141.73" cy="141.73" r="141.73"/>
	</g>
</g>
<g id="FM_1_">
	<g>
		<path class="st11" d="M234.75,123.83v-16.56h-13.55c-1.17-6.26-3.63-12.07-7.12-17.12l9.45-9.45l-11.71-11.71l-9.48,9.48
			c-5.05-3.44-10.85-5.83-17.09-6.97V57.58h-16.56v13.97c-6.19,1.19-11.92,3.64-16.92,7.09l-9.66-9.66l-11.71,11.71l9.69,9.69
			c-3.4,5-5.79,10.72-6.94,16.89h-13.55v16.56h13.55c1.15,6.16,3.54,11.89,6.94,16.89l-9.69,9.69l11.71,11.71l9.66-9.66
			c5,3.45,10.73,5.9,16.92,7.09v13.2h16.56V159.6c6.24-1.14,12.04-3.54,17.09-6.97l9.48,9.48l11.71-11.71l-9.45-9.45
			c3.49-5.05,5.94-10.86,7.12-17.12H234.75z M177.17,140.14c-13.8,0-24.98-11.18-24.98-24.98s11.18-24.98,24.98-24.98
			c13.8,0,24.98,11.18,24.98,24.98S190.96,140.14,177.17,140.14z"/>
	</g>
</g>
<g id="FM_copy">
	<g>
		
			<ellipse transform="matrix(0.7071 -0.7071 0.7071 0.7071 -43.2607 116.9889)" class="st8" cx="119.59" cy="110.71" rx="44.29" ry="44.29"/>
		<g>
			<path class="st8" d="M119.59,70.85c22.02,0,39.86,17.85,39.86,39.86s-17.85,39.86-39.86,39.86s-39.86-17.85-39.86-39.86
				S97.57,70.85,119.59,70.85 M119.59,61.99c-26.86,0-48.72,21.86-48.72,48.72s21.86,48.72,48.72,48.72s48.72-21.86,48.72-48.72
				S146.45,61.99,119.59,61.99L119.59,61.99z"/>
		</g>
	</g>
	<path class="st12" d="M181.6,206.33c0-37.93-28-68.68-62.16-68.68s-61.85,30.75-61.85,68.68v10.69H181.6V206.33z"/>
</g>
<g id="FM">
	<g>
		
			<ellipse transform="matrix(0.7071 -0.7071 0.7071 0.7071 -43.2607 116.9889)" class="st8" cx="119.59" cy="110.71" rx="35.43" ry="35.43"/>
		<g>
			<path class="st13" d="M119.59,79.71c17.12,0,31,13.88,31,31s-13.88,31-31,31s-31-13.88-31-31S102.47,79.71,119.59,79.71
				 M119.59,70.85c-21.98,0-39.86,17.88-39.86,39.86s17.88,39.86,39.86,39.86s39.86-17.88,39.86-39.86S141.57,70.85,119.59,70.85
				L119.59,70.85z"/>
		</g>
	</g>
	<path class="st14" d="M172.74,199.86c0-29.47-24-53.36-53.28-53.36s-53.02,23.89-53.02,53.36v8.31h106.3V199.86z"/>
</g>
<g id="Layer_10">
	<path class="st15" d="M142.1,62.71"/>
	<polygon class="st8" points="143.74,61.28 152.41,72.97 157.59,80.25 156.37,81.02 135.02,65.11 139.9,61.12 	"/>
	<polygon class="st8" points="174.51,166.47 174.51,153.73 163.88,153.16 	"/>
</g>
</svg>
