<svg xmlns="http://www.w3.org/2000/svg" viewBox="0 0 32 32"><circle cx="16" cy="16" r="16" /><path d="M21 18.25a3.75 3.75 0 0 0-2.69 1.14l-4.67-2.54a3.34 3.34 0 0 0 0-1.7l4.67-2.54A3.75 3.75 0 1 0 17.25 10a3.41 3.41 0 0 0 .11.85L12.7 13.4a3.75 3.75 0 1 0 0 5.2l4.67 2.55a3.41 3.41 0 0 0-.11.85A3.75 3.75 0 1 0 21 18.25zm0-10.5A2.25 2.25 0 1 1 18.75 10 2.25 2.25 0 0 1 21 7.75zm-11 10.5A2.25 2.25 0 1 1 12.25 16 2.25 2.25 0 0 1 10 18.25zm11 6A2.25 2.25 0 1 1 23.25 22 2.25 2.25 0 0 1 21 24.25z" /></svg>