<svg xmlns="http://www.w3.org/2000/svg" viewBox="0 0 64 64"><circle cx="32" cy="32" r="32" /><path d="M28.6 18l1 .2.4-.1 2.8-2.1h-1.67l-1.54 1.15-1-.18-.37.07-1 .7.8-1.2a15.16 15.16 0 0 0-1.5.47l-1.42 2.23.7.7zm-9.9 16.9L17 31.58l-1-1-.06 1.33.18.18 1.66 3.32 3.32 3.36-.1 1.5-1.58 1.58.63.76 1.78-1.76.15-.3.2-1.9-.14-.4zm26.22-2.12l2-3-.42-.78h-1.83l-1-.8 2.06-.1.27-.1 1.24-.93a13.22 13.22 0 0 0-.35-1l-1.36 1-3.3.13-.3.9 2.25 1.8.3.1h1.07l-1.2 1.8L39 28l-.68.72 4.83 6.1.6.14.4-.2-3.4 5.25.08.64.94.86-4.5 4.5h-2.5l-2.35-4 .56-1.3v-.35l-1-3-.26-.3-1.32-.6h-.2a4.6 4.6 0 0 1 0-9.19h1.2v.2l.3.46 3.08 1.26.5-.07.26-.22 2.16-.9.26-.25 1.18-2.5-.46-.7h-1.55l-2.36-1.44-.73.6.42 1.14-2.25-1.92h-.6l-3.15 2-.2-.1.6-1.18 2.58-1.58L33.72 21l.28-.43.07-2.07 1.67-1.5.95-.24a16.41 16.41 0 0 0-1.69-.47l-1.73 1.55-.17.36-.07 2-1.5.74.2-.88-2-1-.74.44v1l.5.5h1.88l-.4.2-2.75 1.68-.18.2-.9 1.76.23.68.9.42h.48l3.07-2 2 1.65-.63.83.62.75 1.78-.9.24-.62-.35-1 1.25.77.26.07h.9l-.76 1.6-2 .83-.22.15-2.5-1v-.36l-.5-.5h-1.7a5.6 5.6 0 0 0-.11 11.19l1 .46.86 2.6-.55 1.32v.44l2.62 4.5.43.25h3l.17-.06.2-.1 5-5v-.72l-1-.93 4.1-6.43-.64-.72-1.64.82-2.5-3.08 3 2.12zM32 12a20 20 0 1 0 20 20 20 20 0 0 0-20-20zm0 38a18 18 0 1 1 18-18 18 18 0 0 1-18 18zm8.66-27l.06-.92-2-1-.67.23-1 2 .6.7zm-1.94-.8l.48.24-.7.23z" /></svg>