<svg xmlns="http://www.w3.org/2000/svg" viewBox="0 0 64 64"><circle cx="32" cy="32" r="32" /><path d="M48 26.78c-1.34-6-7.93-14.08-8.2-14.42l-.8-.92-.78.9c-.22.26-4.87 5.72-6.5 10.26a8.64 8.64 0 0 1 .72.88 6.86 6.86 0 0 1 1 .23c1-3.18 4.05-7.3 5.5-9.12 1.76 2.3 6 8.2 7 12.62 1 4.57-.25 7.38-1.5 8.93A7.46 7.46 0 0 1 39 39a6.35 6.35 0 0 1-2.76-.68 7.5 7.5 0 0 1-1 1.73A8 8 0 0 0 39 41a9.41 9.41 0 0 0 7.09-3.6c1.52-1.9 3.08-5.27 1.9-10.62zm-23 16.6V52h2v-9.2l-.4-.13a7.57 7.57 0 0 1-1.59.71zM38 42h2v10h-2zm-1.5-11.58a5 5 0 0 0-5-5h-.2a6.14 6.14 0 0 0-11.46 1.2A5.57 5.57 0 0 0 17.93 37a5 5 0 0 0 8.42 3.34 5.58 5.58 0 0 0 8.42-4.79 5.77 5.77 0 0 0-.14-1.25 5 5 0 0 0 1.86-3.88zM33 33l-.76.43.33.8a3.52 3.52 0 0 1 .24 1.29 3.57 3.57 0 0 1-5.92 2.69l-.9-.7-.64.9a3 3 0 0 1-5.45-1.72 1.55 1.55 0 0 1 0-.22l.08-.76-.7-.28a3.54 3.54 0 0 1-2.24-3.31 3.58 3.58 0 0 1 3.6-3.57h.9l.1-.9a4.14 4.14 0 0 1 8-.85l.28.85.88-.2a3.21 3.21 0 0 1 .63-.06A3 3 0 0 1 33 33z" /></svg>