<svg id="ffc0648f-2337-4efa-a4fb-5be5cec7b6a6" data-name="Icons" xmlns="http://www.w3.org/2000/svg" viewBox="0 0 64 64"><title>knowledge_big</title><g id="f043f0c3-4142-4e77-8681-19eece12b788" data-name="Knowledge"><g id="e68e3a0e-596a-422b-ba29-fec23b72b532" data-name="Knowledge_big"><circle id="b553b8b9-c9f0-4cab-b096-b791af59b619" data-name="circle_bg_big" cx="32" cy="32" r="32" /><path d="M42,39c-.41,3.34-4.74,6-10,6s-9.58-2.62-10-6h0V35.72l-2-1.08v3.81h0c0,.13,0,.26,0,.39V39h0c.41,4.4,5.61,7.9,12,7.9S43.54,43.4,44,39h0V34.64l-2,1.08Z" /><path d="M51,36V30.84l-1,.55V36a1.16,1.16,0,0,0-.66,1v9.66h2.32V37A1.16,1.16,0,0,0,51,36Z" /><path d="M32,13.85,11.87,24.75v3.78L32,39.43l20.13-10.9V24.75ZM50.13,27.34,32,37.15,13.87,27.34v-1.4L32,16.12l18.13,9.82Z" /></g></g></svg>