<svg xmlns="http://www.w3.org/2000/svg" viewBox="0 0 48 48" ><path d="M33.58 13.54a2 2 0 0 0-2.81.33l-.95 1.2h-6.4l-.92 1.16-4.25-3.32-1.25.15V8h14V6H6v2h9v5.28l-1.78.2L9 18.85l.6 5 4.25 3.35-.92 1.17 1.44 6.23-.94 1.2a2 2 0 0 0 .33 2.81l3.14 2.48L36.7 16zm-17 24.78L15 37.08l1.54-1.95-1.44-6.24 1.57-2-5.18-4.1-.4-3.4 3.2-4.06.7-.04v3a2 2 0 0 0-1 1.7 2 2 0 1 0 3-1.72v-3.22l.67-.07 5.16 4.08 1.56-2h5.13l-11.2 14.2.8.62L32.33 15.1l1.57 1.24zm13.064-7.428l.627-.78 9.57 7.7-.627.78zm4.144-4.76l.437-.9 9.334 4.54-.437.9zm-8.163 9.418l.8-.6 6.124 8.408-.8.6z"/></svg>