<svg xmlns="http://www.w3.org/2000/svg" viewBox="0 0 64 64"><circle cx="32" cy="32" r="32" /><path d="M48.12,24A23.14,23.14,0,0,1,24.48,48a24.06,24.06,0,0,1-12.75-3.63A17,17,0,0,0,24,41a8.29,8.29,0,0,1-7.76-5.61A8.42,8.42,0,0,0,20,35.28a8.14,8.14,0,0,1-6.67-8,8.54,8.54,0,0,0,3.77,1,8,8,0,0,1-2.58-10.79A23.87,23.87,0,0,0,31.7,25.92,8.14,8.14,0,0,1,39.8,16a8.43,8.43,0,0,1,6.07,2.55,16.85,16.85,0,0,0,5.28-2,8.13,8.13,0,0,1-3.66,4.47,17,17,0,0,0,4.78-1.27A16.82,16.82,0,0,1,48.12,24"  fill-rule="evenodd"/></svg>