<svg xmlns="http://www.w3.org/2000/svg" viewBox="0 0 24 24" ><path d="M10 13.3L8.7 12h-2L5.33 9.92a6.74 6.74 0 0 0-.28 1.35L6.24 13h2l.7.7v2l2 2v1.2A8.26 8.26 0 0 0 12 19v-1.7l-2-2zm8.7-3.3h-.92l-1.44-1.52v-.42l.86-.74-.2-.26-.48-.44-1.14 1V8.9l2 2h1.57a6.59 6.59 0 0 0-.26-.9zm-5.2 2.05V12h-1.8l-1-1H12V9.2l-1.66-.83.37-.36h1l1.5-1.5-1-1 .46-.5H12a6.16 6.16 0 0 0-.75 0l-.46.45 1 1-.5.5h-1l-1.63 1.7L11 9.8v.2H8.3l3 3h2a1.67 1.67 0 0 1 1.7 1.7 1.66 1.66 0 0 1-.29.94l-.63 1.68v1.37a8.38 8.38 0 0 0 1-.4v-.7l.53-1.44a2.66 2.66 0 0 0-2.06-4.09zM12 2a10 10 0 1 0 10 10A10 10 0 0 0 12 2zm0 18a8 8 0 1 1 8-8 8 8 0 0 1-8 8z"/></svg>