<svg xmlns="http://www.w3.org/2000/svg" viewBox="0 0 48 48" ><path d="M22 7.17A11.17 11.17 0 0 0 17 6a11.16 11.16 0 0 0-5 1.17 11.22 11.22 0 0 0-5.7 7.12 9.23 9.23 0 0 0-.2 3.77c.5 3 2.74 5.42 3.93 8.23a12.77 12.77 0 0 1 1 5.92h1.77a13.66 13.66 0 0 0-1.25-7c-1.24-2.64-3.36-5-3.67-7.87a7.77 7.77 0 0 1 .53-3.63A9.46 9.46 0 0 1 17 7.83a9.47 9.47 0 0 1 8.59 5.86 7.9 7.9 0 0 1 .53 3.63c-.3 2.9-2.43 5.23-3.68 7.87a13.65 13.65 0 0 0-1.24 7H23a12.51 12.51 0 0 1 1-5.9c1.2-2.8 3.42-5.22 3.93-8.23a9.06 9.06 0 0 0-.21-3.77A11.21 11.21 0 0 0 22 7.17zM11 34h12v2H11zm0 3h12v2H11zm2 3h8v2h-8zm17.82-29.63l-1.4 1.42a5.89 5.89 0 0 1 0 8.34l1.4 1.42a7.89 7.89 0 0 0 0-11.18zM34 8.2l-1.42 1.4a9 9 0 0 1 0 12.7L34 23.7a11 11 0 0 0 0-15.5zM37.17 6l-1.42 1.44a12 12 0 0 1 0 17l1.42 1.4a14.05 14.05 0 0 0 0-19.85z"/></svg>