<svg xmlns="http://www.w3.org/2000/svg" viewBox="0 0 32 32"><circle cx="16" cy="16" r="16" /><path d="M16 6a10 10 0 0 0-3.64 19.31 9.55 9.55 0 0 1 0-2.87l1.17-5a3.6 3.6 0 0 1-.3-1.48c0-1.4.8-2.43 1.8-2.43a1.26 1.26 0 0 1 1.3 1.47 20.35 20.35 0 0 1-.83 3.33A1.45 1.45 0 0 0 17 20.1c1.78 0 3.14-1.87 3.14-4.57A3.94 3.94 0 0 0 16 11.46a4.33 4.33 0 0 0-4.52 4.34 3.83 3.83 0 0 0 .75 2.28.32.32 0 0 1 .07.29l-.28 1.13c-.03.13-.15.22-.34.13-1.25-.58-2-2.4-2-3.87 0-3.16 2.3-6 6.6-6a5.87 5.87 0 0 1 6.17 5.77c0 3.45-2.18 6.22-5.2 6.22a2.67 2.67 0 0 1-2.3-1.15l-.62 2.38A10.75 10.75 0 0 1 13 25.55 10 10 0 1 0 16 6"  fill-rule="evenodd"/></svg>