<svg xmlns="http://www.w3.org/2000/svg" viewBox="0 0 32 32"><circle cx="16" cy="16" r="16" /><path d="M19 22.18V26h2v-3.75a4.67 4.67 0 0 1-.83.08 5.36 5.36 0 0 1-1.17-.15zM24.7 14c-.65-2.9-3.8-6.77-3.94-6.93l-.57-.7-.58.68A20.18 20.18 0 0 0 16.48 12a3.94 3.94 0 0 1 1.37.61 15.81 15.81 0 0 1 2.31-3.86c.9 1.22 2.64 3.7 3.06 5.58a4.58 4.58 0 0 1-.65 4 3.24 3.24 0 0 1-2.4 1.25 2.55 2.55 0 0 1-1.55-.58 4 4 0 0 1-.62 1.46 4 4 0 0 0 2.13.62 4.73 4.73 0 0 0 3.57-1.81 5.94 5.94 0 0 0 .99-5.27zM12 22.64V26h2v-3.65a4.4 4.4 0 0 1-.63-.13 4 4 0 0 1-1.37.42zm6.26-6.84a2.64 2.64 0 0 0-2.57-2.64 3.18 3.18 0 0 0-5.8.61A2.91 2.91 0 0 0 9 19.08a2.65 2.65 0 0 0 2.62 2.33 2.68 2.68 0 0 0 1.66-.58 2.94 2.94 0 0 0 1.31.31 2.91 2.91 0 0 0 2.91-2.91 2.7 2.7 0 0 0 0-.49 2.61 2.61 0 0 0 .76-1.94zm-2.08 1l-.57.33.25.6a1.35 1.35 0 0 1 .09.5 1.42 1.42 0 0 1-.21.74 3 3 0 0 1-.22.28 1.44 1.44 0 0 1-1 .39 1.4 1.4 0 0 1-.93-.35l-.6-.56-.48.7a1.17 1.17 0 0 1-.94.48 1.15 1.15 0 0 1-1.13-1.22l.05-.56-.5-.2a1.4 1.4 0 0 1-.89-1.31 1.43 1.43 0 0 1 1.43-1.41h.67l.08-.67a1.67 1.67 0 0 1 3.25-.34l.22.64.65-.14h.24a1.14 1.14 0 0 1 .56 2.13z" /></svg>