<svg xmlns="http://www.w3.org/2000/svg" viewBox="0 0 32 32"><circle cx="16" cy="16" r="16" /><path d="M25.8 13.37l-2.03-1.3-1.45 1.45.88.56-1 1.93 1 1.93-1.82 1.18-.1 2.16-2.16.1-1.18 1.82-1.93-1-1.93 1-1.18-1.82-2.16-.1-.1-2.16-1.82-1.18 1-1.93-1-1.93 1.82-1.18.1-2.16 2.16-.1 1.18-1.82 1.93 1 1.93-1 1.18 1.82.42.02 1.9-1.9-1.2-.06-1.6-2.48L16 7.54 13.37 6.2l-1.6 2.48-2.95.14-.14 2.95-2.48 1.6L7.54 16 6.2 18.63l2.48 1.6.14 2.95 2.95.14 1.6 2.48L16 24.46l2.63 1.34 1.6-2.48 2.95-.14.14-2.95 2.48-1.6L24.46 16l1.34-2.63zm-12.6-.57l-1.4 1.4 4.2 4.2 8.2-8.2-1.4-1.4-6.8 6.8-2.8-2.8z" /></svg>