<svg xmlns="http://www.w3.org/2000/svg" viewBox="0 0 32 32"><circle cx="16" cy="16" r="16" /><path d="M22.84 10.18a7.26 7.26 0 0 0-4.69-4.34 7.49 7.49 0 0 0-4.3 0 7.26 7.26 0 0 0-4.69 4.34A7.79 7.79 0 0 0 9.67 17L16 26.84 22.36 17a7.79 7.79 0 0 0 .48-6.82zM20.65 16L16 23.16 11.38 16a5.82 5.82 0 0 1-.38-5.08 5.32 5.32 0 0 1 3.41-3.17 5.54 5.54 0 0 1 3.16 0A5.32 5.32 0 0 1 21 10.92a5.82 5.82 0 0 1-.35 5.08zM16 10.07a3.54 3.54 0 1 0 3.51 3.53A3.53 3.53 0 0 0 16 10.07zm0 5.57a2 2 0 1 1 2-2 2 2 0 0 1-2 2z" /></svg>