<svg xmlns="http://www.w3.org/2000/svg" viewBox="0 0 64 64"><circle cx="32" cy="32" r="32" /><path d="M25.5 44h13v2h-13zm0 3h13v2h-13zm2.5 3h8v2h-8zm15.67-28.95a12.23 12.23 0 0 0-6.26-7.77A12.06 12.06 0 0 0 32 12a12.06 12.06 0 0 0-5.41 1.25 12.23 12.23 0 0 0-6.26 7.77 10 10 0 0 0-.22 4.11c.56 3.3 3 5.9 4.3 9a13.82 13.82 0 0 1 1 6.45h2a15 15 0 0 0-1.36-7.66c-1.36-2.88-3.67-5.42-4-8.6a8.53 8.53 0 0 1 .58-4A10.31 10.31 0 0 1 32 14a10.31 10.31 0 0 1 9.37 6.39 8.53 8.53 0 0 1 .58 4c-.34 3.16-2.65 5.7-4 8.6a15 15 0 0 0-1.36 7.66h2a13.82 13.82 0 0 1 1-6.45c1.3-3.08 3.73-5.7 4.3-9a10 10 0 0 0-.21-4.14z" /></svg>