<?xml version="1.0" encoding="UTF-8"?>
<svg viewBox="0 0 32 32" xmlns="http://www.w3.org/2000/svg">
<title>instagram_small</title>
<g data-name="Icons">
<g data-name="Instagram">
<g data-name="Instagram_small">
<circle cx="16" cy="16" r="16"  data-name="circle_bg_small"/>
<path d="M25,12.29a6.9,6.9,0,0,0-.42-2.19A4.64,4.64,0,0,0,21.9,7.47a6.9,6.9,0,0,0-2.19-.42c-1,0-1.27,0-3.71,0s-2.75,0-3.71,0a6.9,6.9,0,0,0-2.19.42A4.64,4.64,0,0,0,7.47,10.1a6.9,6.9,0,0,0-.42,2.19c0,1,0,1.27,0,3.71s0,2.75,0,3.71a6.9,6.9,0,0,0,.42,2.19,4.64,4.64,0,0,0,2.63,2.63,6.9,6.9,0,0,0,2.19.42c1,0,1.27.05,3.71.05s2.75,0,3.71-.05a6.9,6.9,0,0,0,2.19-.42,4.64,4.64,0,0,0,2.63-2.63A6.9,6.9,0,0,0,25,19.71c0-1,.05-1.27.05-3.71S25,13.25,25,12.29Zm-1.62,7.35A5.12,5.12,0,0,1,23,21.31,3.08,3.08,0,0,1,21.31,23a5.12,5.12,0,0,1-1.67.31c-.95,0-1.24.05-3.64.05s-2.69,0-3.64-.05A5.12,5.12,0,0,1,10.69,23,3.08,3.08,0,0,1,9,21.31a5.12,5.12,0,0,1-.31-1.67c0-.95-.05-1.24-.05-3.64s0-2.69.05-3.64A5.12,5.12,0,0,1,9,10.69,3.08,3.08,0,0,1,10.69,9a5.12,5.12,0,0,1,1.67-.31c1,0,1.24-.05,3.64-.05s2.69,0,3.64.05A5.12,5.12,0,0,1,21.31,9,3.08,3.08,0,0,1,23,10.69a5.12,5.12,0,0,1,.31,1.67c0,1,.05,1.24.05,3.64S23.37,18.69,23.33,19.64Z" />
<path d="M16,11.38A4.62,4.62,0,1,0,20.62,16,4.62,4.62,0,0,0,16,11.38ZM16,19a3,3,0,1,1,3-3A3,3,0,0,1,16,19Z" />
<path d="M20.8,10.12a1.08,1.08,0,1,0,1.08,1.08A1.08,1.08,0,0,0,20.8,10.12Z" />
</g>
</g>
</g>
</svg>
