<svg xmlns="http://www.w3.org/2000/svg" viewBox="0 0 32 32"><circle cx="16" cy="16" r="16" /><path d="M19 10a2 2 0 1 1-1.27 3.54 4.93 4.93 0 0 1-1 1.75 4 4 0 1 0 0-6.58 4.93 4.93 0 0 1 1 1.75A2 2 0 0 1 19 10zm-6 6a4 4 0 1 0-4-4 4 4 0 0 0 4 4zm0-6a2 2 0 1 1-2 2 2 2 0 0 1 2-2zm12.8 9.7a8.52 8.52 0 0 0-6.81-3 10.45 10.45 0 0 0-1.29.09 9 9 0 0 1 2.7 2 6.55 6.55 0 0 1 3.6 1.87V22h-3v2h5v-4zM13 16.73a8.52 8.52 0 0 0-6.81 3L6 20v4h14v-4l-.2-.27a8.52 8.52 0 0 0-6.81-3zM18 22H8v-1.34a6.77 6.77 0 0 1 5-1.93 6.77 6.77 0 0 1 5 1.93z" /></svg>