<svg xmlns="http://www.w3.org/2000/svg" viewBox="0 0 64 64"><circle cx="32" cy="32" r="32" /><path d="M48.57 27H41v2h6.43L50 33.28v3.85h-9v1h9V41h-1.6a5.21 5.21 0 0 1 .61 2h3V32.72zM15 20a3 3 0 0 0-3 3v20h3a5.21 5.21 0 0 1 .58-2H14v-2.87h23V41H25.4a5.21 5.21 0 0 1 .61 2h12a5.32 5.32 0 0 1 1-2.65V20zm22 7v10.13H14V23a1 1 0 0 1 1-1h22zM20.5 39a4.5 4.5 0 1 0 4.5 4.5 4.51 4.51 0 0 0-4.5-4.5zm0 7a2.5 2.5 0 1 1 2.5-2.5 2.5 2.5 0 0 1-2.5 2.5zm23-7a4.5 4.5 0 1 0 4.5 4.5 4.51 4.51 0 0 0-4.5-4.5zm0 7a2.5 2.5 0 1 1 2.5-2.5 2.5 2.5 0 0 1-2.5 2.5z" /></svg>