<svg xmlns="http://www.w3.org/2000/svg" viewBox="0 0 32 32"><circle cx="16" cy="16" r="16" /><path d="M9.5 22h7v1h-7zm1 2h5v1h-5zm8.28-11.95a6 6 0 0 0-4-4.78A5.31 5.31 0 0 0 13 7a5.31 5.31 0 0 0-1.81.28 6 6 0 0 0-4 4.78 5.12 5.12 0 0 0 0 1.41 9.87 9.87 0 0 0 1.36 3.21 5.91 5.91 0 0 1 1 3.33h2a5.78 5.78 0 0 0-.55-2.9c-.4-.9-.9-1.76-1.36-2.65a4.2 4.2 0 0 1-.43-1.08 3.15 3.15 0 0 1 0-1.43 4 4 0 0 1 2.87-2.88A3.62 3.62 0 0 1 13 9a3.62 3.62 0 0 1 .87.09A4 4 0 0 1 16.74 12a3.15 3.15 0 0 1 .05 1.43 4.2 4.2 0 0 1-.43 1.08L15 17.16a5.78 5.78 0 0 0-.53 2.84h2a5.91 5.91 0 0 1 1-3.33 9.87 9.87 0 0 0 1.36-3.21 5.12 5.12 0 0 0-.05-1.41zm1.74-3.15l-1.04 1.06a4.22 4.22 0 0 1 0 6l.52.54.53.53a5.71 5.71 0 0 0 0-8.11zm2.28-1.57L21.75 8.4a6.45 6.45 0 0 1 0 9.12l1.06 1.06a7.94 7.94 0 0 0 0-11.24z" /></svg>