<svg xmlns="http://www.w3.org/2000/svg" viewBox="0 0 24 24" ><path d="M12 8.5a3.5 3.5 0 1 0 3.5 3.5A3.5 3.5 0 0 0 12 8.5zm0 6a2.5 2.5 0 1 1 2.5-2.5 2.5 2.5 0 0 1-2.5 2.5zm9.45-3.5l-.1-.8-.72-.37-1.27-.66-.15-.37.68-2.13-.5-.67A8.79 8.79 0 0 0 18 4.61l-.62-.5-.78.25-1.35.43-.37-.15-.66-1.27-.37-.72-.85-.1h-2l-.8.1-.37.72-.67 1.27-.37.15-2.13-.68-.66.5A8.79 8.79 0 0 0 4.61 6l-.5.62.25.78.43 1.35-.15.37-1.27.66-.72.37-.1.8v2l.1.8.72.37 1.27.66.15.37-.43 1.35-.25.78.5.62A8.79 8.79 0 0 0 6 19.39l.62.5.78-.25 1.35-.43.37.15.66 1.27.37.72.8.1c.35 0 .68.05 1 .05s.66 0 1-.05l.8-.1.37-.72.66-1.27.37-.15 1.35.43.78.25.62-.5A8.79 8.79 0 0 0 19.39 18l.5-.62-.25-.78-.43-1.35.15-.37 1.27-.66.72-.37.1-.8c0-.34.05-.68.05-1L21.45 11zM20 12.85l-1.8.93a6 6 0 0 1-.54 1.31l.57 1.9a7.57 7.57 0 0 1-1.2 1.2l-1.93-.62a6 6 0 0 1-1.31.54l-.94 1.9a7.25 7.25 0 0 1-1.7 0l-.93-1.8a6 6 0 0 1-1.31-.54l-1.9.57A7.57 7.57 0 0 1 5.78 17l.62-1.93a6 6 0 0 1-.54-1.31l-1.8-.93a7.25 7.25 0 0 1 0-1.7l1.8-.93a6 6 0 0 1 .54-1.29L5.78 7A7.57 7.57 0 0 1 7 5.78l1.93.62a6 6 0 0 1 1.31-.54l.93-1.8a7.25 7.25 0 0 1 1.7 0l.93 1.8a6 6 0 0 1 1.31.54l1.9-.62A7.57 7.57 0 0 1 18.22 7l-.62 1.9a6 6 0 0 1 .54 1.31l1.8.93a7.25 7.25 0 0 1 0 1.7z"/></svg>