<svg xmlns="http://www.w3.org/2000/svg" viewBox="0 0 32 32"><circle cx="16" cy="16" r="16" /><path d="M24.06 12a11.57 11.57 0 0 1-11.82 12 12.05 12.05 0 0 1-6.37-1.81A8.56 8.56 0 0 0 12 20.51a4.14 4.14 0 0 1-3.88-2.8 4.39 4.39 0 0 0 1.88-.07 4.08 4.08 0 0 1-3.34-4 4.24 4.24 0 0 0 1.88.5 4 4 0 0 1-1.26-5.4A11.93 11.93 0 0 0 15.85 13a4.07 4.07 0 0 1 4-5 4.18 4.18 0 0 1 3 1.28 8.71 8.71 0 0 0 2.64-1 4.1 4.1 0 0 1-1.82 2.23 8.54 8.54 0 0 0 2.38-.64A8.22 8.22 0 0 1 24.06 12"  fill-rule="evenodd"/></svg>