<?xml version="1.0" encoding="utf-8"?>
<!-- Generator: Adobe Illustrator 23.0.3, SVG Export Plug-In . SVG Version: 6.00 Build 0)  -->
<svg version="1.1" xmlns="http://www.w3.org/2000/svg" xmlns:xlink="http://www.w3.org/1999/xlink" x="0px" y="0px"
	 viewBox="0 0 283.46 283.46" style="enable-background:new 0 0 283.46 283.46;" xml:space="preserve">
<style type="text/css">
	.st0{display:none;}
	.st1{display:inline;}
	.st2{fill:#199BD8;}
	.st3{fill:none;stroke:#199BD8;stroke-width:0.3;stroke-miterlimit:10;}
	.st4{fill:none;stroke:#199BD8;stroke-width:0.2984;stroke-miterlimit:10;}
	.st5{display:inline;opacity:0.5;}
	.st6{fill:#81CFF4;}
	.st7{display:inline;opacity:0.5;fill:none;}
	.st8{display:inline;fill:none;stroke:#EA5B0C;stroke-width:13.4803;stroke-miterlimit:10;}
	.st9{fill:#FFFFFF;}
	.st10{fill:#EA5B0C;}
	.st11{display:inline;fill:#FF6600;}
	.st12{fill:#FF6600;}
	.st13{fill:none;stroke:#FF6600;stroke-width:8.8583;stroke-miterlimit:10;}
	.st14{fill:#FFFFFF;stroke:#FF6600;stroke-width:8.8583;stroke-miterlimit:10;}
</style>
<g id="Measurement_1_" class="st0">
	<g class="st1">
		<path class="st2" d="M141.73,0.6c37.7,0,73.14,14.68,99.8,41.34c26.66,26.66,41.34,62.1,41.34,99.8c0,37.7-14.68,73.14-41.34,99.8
			c-26.66,26.66-62.1,41.34-99.8,41.34c-37.7,0-73.14-14.68-99.8-41.34c-26.66-26.66-41.34-62.1-41.34-99.8
			c0-37.7,14.68-73.14,41.34-99.8C68.59,15.28,104.03,0.6,141.73,0.6 M141.73,0C63.46,0,0,63.46,0,141.73
			c0,78.28,63.46,141.73,141.73,141.73c78.28,0,141.73-63.46,141.73-141.73C283.46,63.46,220.01,0,141.73,0L141.73,0z"/>
	</g>
	<g class="st1">
		<path class="st2" d="M282.87,0.6v282.27H0.6V0.6H282.87 M283.46,0H0v283.46h283.46V0L283.46,0z"/>
	</g>
	<g class="st1">
		<line class="st3" x1="0" y1="0" x2="283.46" y2="0"/>
		<line class="st3" x1="0" y1="35.43" x2="283.46" y2="35.43"/>
		<line class="st3" x1="0" y1="70.87" x2="283.46" y2="70.87"/>
		<line class="st3" x1="0" y1="106.3" x2="283.46" y2="106.3"/>
		<line class="st3" x1="0" y1="141.73" x2="283.46" y2="141.73"/>
		<line class="st3" x1="0" y1="177.17" x2="283.46" y2="177.17"/>
		<line class="st3" x1="0" y1="212.6" x2="283.46" y2="212.6"/>
		<line class="st3" x1="0" y1="248.03" x2="283.46" y2="248.03"/>
		<line class="st3" x1="0" y1="283.46" x2="283.46" y2="283.46"/>
	</g>
	<g class="st1">
		<line class="st4" x1="0" y1="283.33" x2="0" y2="0"/>
		<line class="st4" x1="35.43" y1="283.33" x2="35.43" y2="0"/>
		<line class="st4" x1="70.87" y1="283.33" x2="70.87" y2="0"/>
		<line class="st4" x1="106.3" y1="283.33" x2="106.3" y2="0"/>
		<line class="st4" x1="141.73" y1="283.33" x2="141.73" y2="0"/>
		<line class="st4" x1="177.17" y1="283.33" x2="177.17" y2="0"/>
		<line class="st4" x1="212.6" y1="283.33" x2="212.6" y2="0"/>
		<line class="st4" x1="248.03" y1="283.33" x2="248.03" y2="0"/>
		<line class="st4" x1="283.46" y1="283.33" x2="283.46" y2="0"/>
	</g>
	<g class="st5">
		<g>
			<path class="st6" d="M283.43,144.71c0.02-1.03,0.04-2.06,0.04-3.09s-0.02-2.06-0.04-3.09V35.44h0.03V-0.11h-0.03h-35.54H35.55H0
				v35.55v212.58v35.33v0.21h283.46v-35.55h-0.03V144.71z M150.21,248.13h-16.96c-51.39-4.04-92.55-44.47-97.71-95.54v-21.71
				c5.08-50.28,45.06-90.26,95.34-95.33h21.7c50.17,5.06,90.07,44.87,95.3,94.99v22.4C242.57,203.84,201.49,244.1,150.21,248.13z
				 M247.88,35.55v12.28c-3.84-4.34-7.95-8.44-12.29-12.28H247.88z M35.55,35.55h12.32c-4.36,3.85-8.47,7.97-12.32,12.32V35.55z
				 M35.55,235.59c3.92,4.43,8.12,8.62,12.56,12.54H35.55V235.59z M235.36,248.13c4.43-3.9,8.61-8.07,12.52-12.49v12.49H235.36z"/>
		</g>
	</g>
	<path class="st7" d="M283.46,35.55V0h-0.03h-35.54H35.55H0v35.55v212.58v35.33v0.21h283.46v-35.55h-0.03V35.55H283.46z
		 M247.88,248.13H35.55V35.55h212.33V248.13z"/>
	<g class="st5">
	</g>
</g>
<g id="Grid" class="st0">
	<path class="st8" d="M147.57,60.91"/>
	<g class="st1">
	</g>
	<g class="st1">
	</g>
</g>
<g id="Square_outline" class="st0">
	<g class="st1">
		<rect x="8.85" y="8.85" class="st9" width="265.77" height="265.77"/>
		<path class="st10" d="M265.76,17.7v248.06H17.7V17.7H265.76 M283.46,0H0v283.46h283.46V0L283.46,0z"/>
	</g>
</g>
<g id="Square_orange" class="st0">
	<rect class="st11" width="283.46" height="283.46"/>
</g>
<g id="Circle_orange" class="st0">
	<circle class="st11" cx="141.73" cy="141.73" r="141.73"/>
</g>
<g id="Circle_outline">
	<g>
		<circle class="st9" cx="141.73" cy="141.73" r="141.73"/>
	</g>
</g>
<g id="B2C_Living_Room_1_">
	
		<rect x="62.01" y="194.88" transform="matrix(6.123234e-17 -1 1 6.123234e-17 -132.874 265.748)" class="st12" width="8.86" height="8.86"/>
	
		<rect x="212.6" y="194.88" transform="matrix(6.123234e-17 -1 1 6.123234e-17 17.7165 416.3386)" class="st12" width="8.86" height="8.86"/>
	<path class="st13" d="M190.67,119.59h-35.65c-4.89,0-8.86,3.97-8.86,8.86v8.86c0,4.89,3.97,8.86,8.86,8.86h35.65
		c4.89,0,8.86-3.97,8.86-8.86v-8.86C199.52,123.55,195.56,119.59,190.67,119.59z"/>
	<rect x="66.44" y="84.15" class="st13" width="150.59" height="70.87"/>
	<path class="st13" d="M128.45,119.59H93.01c-4.89,0-8.86,3.97-8.86,8.86v8.86c0,4.89,3.97,8.86,8.86,8.86h35.43
		c4.89,0,8.86-3.97,8.86-8.86v-8.86C137.3,123.55,133.34,119.59,128.45,119.59z"/>
	<rect x="57.49" y="172.74" class="st14" width="168.48" height="17.72"/>
	<path class="st14" d="M212.68,172.74H70.78c-7.34,0-13.29-5.95-13.29-13.29v-8.86c0-7.34,5.95-13.29,13.29-13.29h141.9
		c7.34,0,13.29,5.95,13.29,13.29v8.86C225.97,166.79,220.02,172.74,212.68,172.74z"/>
</g>
</svg>
