<svg xmlns="http://www.w3.org/2000/svg" viewBox="0 0 24 24" ><path d="M14.4 2H4v8h2V4h7v5.92l5 .08v10H6v-1H4v3h16V7.6zM18 9l-4-.06V4.42l4 4zM5 15h.52a2 2 0 0 0 .62-.09 1.37 1.37 0 0 0 .49-.27 1.19 1.19 0 0 0 .3-.47A1.71 1.71 0 0 0 7 13.5a2.51 2.51 0 0 0 0-.5 1.51 1.51 0 0 0-.22-.48 1.25 1.25 0 0 0-.41-.34A1.32 1.32 0 0 0 5.7 12H4v5h1zm0-2.26h.4a.62.62 0 0 1 .52.2.92.92 0 0 1 .16.57.78.78 0 0 1-.18.57.64.64 0 0 1-.47.18H5zm5.87 3.64a2.34 2.34 0 0 0 .26-.81 7.44 7.44 0 0 0 .08-1.14 7.57 7.57 0 0 0-.06-1 2.33 2.33 0 0 0-.23-.77 1.33 1.33 0 0 0-.48-.49 1.75 1.75 0 0 0-.82-.17H8v5h1.56a1.87 1.87 0 0 0 .8-.15 1.28 1.28 0 0 0 .51-.47zm-.66-1.07a1.88 1.88 0 0 1-.12.56.58.58 0 0 1-.25.3.8.8 0 0 1-.41.09H9v-3.52h.4a.79.79 0 0 1 .44.11.62.62 0 0 1 .25.32 1.61 1.61 0 0 1 .11.54q0 .3 0 .75a4.78 4.78 0 0 1 0 .85zm4.8-2.48V12h-2.7v5h.97v-2.17h1.62V14h-1.62v-1.17H15z"/></svg>