<svg xmlns="http://www.w3.org/2000/svg" viewBox="0 0 64 64"><circle cx="32" cy="32" r="32" /><path d="M32 20.07a6.55 6.55 0 1 0 6.55 6.55A6.56 6.56 0 0 0 32 20.07zm0 11.1a4.55 4.55 0 1 1 4.55-4.55A4.55 4.55 0 0 1 32 31.17zm12.86-10.95A13.61 13.61 0 0 0 36 12.09a14.24 14.24 0 0 0-8.08 0 13.61 13.61 0 0 0-8.82 8.13 14.44 14.44 0 0 0 .94 12.68L32 53.32 43.92 32.9a14.44 14.44 0 0 0 .94-12.68zM42.2 31.9L32 49.35 21.8 31.9A12.47 12.47 0 0 1 21 21a11.67 11.67 0 0 1 7.53-7 12.29 12.29 0 0 1 6.94 0A11.67 11.67 0 0 1 43 21a12.47 12.47 0 0 1-.81 10.89z" /></svg>