<svg data-name="Ebene 1" 
    xmlns="http://www.w3.org/2000/svg" viewBox="0 0 283.46 283.46">
    <path d="M184.02 72.87V210.6h-31.43v-35.43h-21.72v35.43H99.44V72.87h84.58m-35.43 35.43h21.72V86.58h-21.72v21.72m-35.44 0h21.73V86.58h-21.72v2l-.01 17.72v2m35.44 26.57h21.72v-21.73h-2l-17.72.01h-2v21.72m-35.44 0h21.73v-21.72h-21.73v21.72m35.44 26.58h21.72v-21.72h-21.72v21.72m-35.43 0h21.72v-21.71h-21.72v21.71m72.86-90.58H97.44V212.6h35.43v-35.43h17.72v35.43h35.43V70.87zm-35.43 35.43V88.58h17.72v17.72zm-35.44 0l.01-17.72h17.72v17.72zm35.44 26.57v-17.72l17.72-.01v17.73zm-35.44 0v-17.72h17.73v17.72zm35.44 26.58v-17.72h17.72v17.72zm-35.43 0v-17.72h17.72v17.71l-17.72.01z"/>
</svg>