<svg xmlns="http://www.w3.org/2000/svg" viewBox="0 0 48 48" ><path d="M24 12.07a6.55 6.55 0 1 0 6.55 6.55A6.56 6.56 0 0 0 24 12.07zm0 11.1a4.55 4.55 0 1 1 4.55-4.55A4.55 4.55 0 0 1 24 23.17zm12.86-10.95A13.61 13.61 0 0 0 28 4.09a14.24 14.24 0 0 0-8.08 0 13.61 13.61 0 0 0-8.82 8.13 14.44 14.44 0 0 0 .94 12.68L24 45.32 35.92 24.9a14.44 14.44 0 0 0 .94-12.68zM34.2 23.9L24 41.35 13.8 23.9A12.47 12.47 0 0 1 13 13a11.67 11.67 0 0 1 7.53-7 12.29 12.29 0 0 1 6.94 0A11.67 11.67 0 0 1 35 13a12.47 12.47 0 0 1-.81 10.89z"/></svg>