<svg xmlns="http://www.w3.org/2000/svg" viewBox="0 0 24 24"><path d="M12 2a10 10 0 0 0-3.64 19.31 9.55 9.55 0 0 1 0-2.87l1.17-5A3.6 3.6 0 0 1 9.26 12c0-1.4.8-2.43 1.8-2.43A1.26 1.26 0 0 1 12.34 11a20.35 20.35 0 0 1-.83 3.33A1.45 1.45 0 0 0 13 16.1c1.78 0 3.14-1.87 3.14-4.57A3.94 3.94 0 0 0 12 7.46a4.33 4.33 0 0 0-4.56 4.34 3.83 3.83 0 0 0 .75 2.28.32.32 0 0 1 .07.29l-.28 1.13c-.03.13-.15.22-.34.13-1.25-.58-2-2.4-2-3.87 0-3.16 2.3-6 6.6-6a5.87 5.87 0 0 1 6.17 5.77c0 3.45-2.18 6.22-5.2 6.22a2.67 2.67 0 0 1-2.3-1.15l-.62 2.38A10.75 10.75 0 0 1 9 21.55 10 10 0 1 0 12 2z"  fill-rule="evenodd"/></svg>