<?xml version="1.0" encoding="UTF-8"?>
<svg viewBox="0 0 48 48" xmlns="http://www.w3.org/2000/svg">
<title>phone_big</title>
<g data-name="Icons">
<g data-name="Phone">
<path d="M16,8a1.78,1.78,0,0,1,1.78,1.78,20.09,20.09,0,0,0,1,6.34,1.8,1.8,0,0,1-.44,1.82l-3.91,3.91A26.88,26.88,0,0,0,26.15,33.56l3.91-3.91a1.79,1.79,0,0,1,1.26-.52,1.62,1.62,0,0,1,.56.1,20.48,20.48,0,0,0,6.34,1A1.78,1.78,0,0,1,40,32v6.2A1.78,1.78,0,0,1,38.22,40,30.22,30.22,0,0,1,8,9.78,1.78,1.78,0,0,1,9.78,8H16m0-2H9.78A3.78,3.78,0,0,0,6,9.78,32.25,32.25,0,0,0,38.22,42,3.78,3.78,0,0,0,42,38.22V32a3.78,3.78,0,0,0-3.78-3.78,18.4,18.4,0,0,1-5.72-.91,3.52,3.52,0,0,0-1.18-.2,3.8,3.8,0,0,0-2.67,1.11L25.8,31.09a25.15,25.15,0,0,1-8.89-8.89l2.85-2.85a3.77,3.77,0,0,0,.94-3.83,18.05,18.05,0,0,1-.92-5.74A3.78,3.78,0,0,0,16,6Z"  data-name="Phone_big"/>
</g>
</g>
</svg>
