<svg xmlns="http://www.w3.org/2000/svg" viewBox="0 0 32 32"><circle cx="16" cy="16" r="16" /><path d="M18.4 6H8v8h2V8h7v5.92l5 .08v10H10v-1H8v3h16V11.6zm3.6 7l-4-.06V8.42l4 4zm-11.04 7.17H9.1l1.82-3.4V16h-2.8v.83H9.8L8 20.27V21h2.96v-.83zM12 16h1v5h-1zm3.5 3a2.15 2.15 0 0 0 .64-.09 1.25 1.25 0 0 0 .48-.27 1.23 1.23 0 0 0 .32-.47 1.92 1.92 0 0 0 .11-.67A2 2 0 0 0 17 17a1.32 1.32 0 0 0-.22-.48 1.28 1.28 0 0 0-.42-.34 1.34 1.34 0 0 0-.63-.13H14v5h1V19zm-.5-2.26h.4a.64.64 0 0 1 .53.2.92.92 0 0 1 .16.57.78.78 0 0 1-.18.57.65.65 0 0 1-.48.18H15z" /></svg>