<svg xmlns="http://www.w3.org/2000/svg" viewBox="0 0 64 64"><circle cx="32" cy="32" r="32" /><path d="M52 32a1 1 0 0 0-.33-.74l-3.84-3.5 1.58-5a1 1 0 0 0-.74-1.28l-5.08-1.1-1.1-5.08a1 1 0 0 0-1.28-.74l-5 1.58-3.5-3.84a1 1 0 0 0-1.48 0l-3.5 3.84-5-1.58a1 1 0 0 0-1.28.74l-1.1 5.08-5.08 1.1a1 1 0 0 0-.74 1.28l1.58 5-3.84 3.5a1 1 0 0 0 0 1.48l3.84 3.5-1.58 5a1 1 0 0 0 .74 1.28l5.08 1.1 1.1 5.08a1 1 0 0 0 1.28.74l5-1.58 3.5 3.84a1 1 0 0 0 1.48 0l3.5-3.84 5 1.58a1 1 0 0 0 1.28-.74l1.1-5.08 5.08-1.1a1 1 0 0 0 .74-1.28l-1.58-5 3.84-3.5A1 1 0 0 0 52 32zm-6 3.2a1 1 0 0 0-.28 1.05l1.44 4.52-4.64 1a1 1 0 0 0-.76.76l-1 4.64-4.52-1.44a1 1 0 0 0-1.05.28l-3.2 3.5L28.8 46a1 1 0 0 0-.74-.33 1.06 1.06 0 0 0-.31 0l-4.52 1.44-1-4.64a1 1 0 0 0-.76-.76l-4.64-1 1.44-4.52a1 1 0 0 0-.28-1L14.5 32l3.5-3.2a1 1 0 0 0 .28-1l-1.44-4.52 4.64-1a1 1 0 0 0 .76-.76l1-4.64 4.52 1.44a1 1 0 0 0 1-.28L32 14.48 35.2 18a1 1 0 0 0 1.05.28l4.52-1.44 1 4.64a1 1 0 0 0 .76.76l4.64 1-1.44 4.52a1 1 0 0 0 .28 1L49.5 32zm-3.46-6.34A11.19 11.19 0 0 1 43 32a11 11 0 1 1-3-7.58l.73-.68a12.001 12.001 0 0 0-17.99 15.89 11.42 11.42 0 0 0 1.63 1.63 12 12 0 0 0 15.26 0 11.42 11.42 0 0 0 1.63-1.63 11.95 11.95 0 0 0 2.08-11.53zm-15.84-.6l-1.38 1.45 7 6.66L43.7 25.73l-1.36-1.46-10 9.36-5.62-5.36z" /></svg>