<svg xmlns="http://www.w3.org/2000/svg" viewBox="0 0 64 64"><circle cx="32" cy="32" r="32" /><path d="M34.05 12H18v22h2V14h13v10.87L44 25v25H20v-3h-2v5h28V24zM35 22.9v-7.15L42.17 23zM21.84 42.65H19.4l2.4-4.38v-.98h-3.7v1.06h2.2l-2.36 4.42v.94h3.9v-1.06zm1.26-5.35h1.3v6.43h-1.3zm4.95 3.85a2.73 2.73 0 0 0 .83-.12 1.77 1.77 0 0 0 .65-.35 1.73 1.73 0 0 0 .41-.6 2.33 2.33 0 0 0 .15-.87 2.74 2.74 0 0 0-.09-.7 1.7 1.7 0 0 0-.3-.62 1.56 1.56 0 0 0-.54-.44 1.94 1.94 0 0 0-.84-.16h-2.26v6.42h1.3v-2.56zm-.7-2.9h.54a.85.85 0 0 1 .69.25 1.14 1.14 0 0 1 .21.74 1 1 0 0 1-.24.73.82.82 0 0 1-.62.23h-.58z" /></svg>