<?xml version="1.0" encoding="UTF-8"?>
<svg viewBox="0 0 64 64" xmlns="http://www.w3.org/2000/svg">
<title>phone_big_1</title>
<g data-name="Icons">
<g data-name="Phone">
<g data-name="Phone_big">
<circle cx="32" cy="32" r="32"  data-name="circle_bg_big"/>
<path d="M24,16a1.78,1.78,0,0,1,1.78,1.78,20.09,20.09,0,0,0,1,6.34,1.8,1.8,0,0,1-.44,1.82l-3.91,3.91A26.88,26.88,0,0,0,34.15,41.56l3.91-3.91a1.79,1.79,0,0,1,1.26-.52,1.62,1.62,0,0,1,.56.1,20.48,20.48,0,0,0,6.34,1A1.78,1.78,0,0,1,48,40v6.2A1.78,1.78,0,0,1,46.22,48,30.22,30.22,0,0,1,16,17.78,1.78,1.78,0,0,1,17.78,16H24m0-2H17.78A3.78,3.78,0,0,0,14,17.78,32.25,32.25,0,0,0,46.22,50,3.78,3.78,0,0,0,50,46.22V40a3.78,3.78,0,0,0-3.78-3.78,18.4,18.4,0,0,1-5.72-.91,3.52,3.52,0,0,0-1.18-.2,3.8,3.8,0,0,0-2.67,1.11L33.8,39.09a25.15,25.15,0,0,1-8.89-8.89l2.85-2.85a3.77,3.77,0,0,0,.94-3.83,18.05,18.05,0,0,1-.92-5.74A3.78,3.78,0,0,0,24,14Z"  data-name="Phone_big"/>
</g>
</g>
</g>
</svg>
