<?xml version="1.0" encoding="UTF-8"?>
<svg viewBox="0 0 48 48" xmlns="http://www.w3.org/2000/svg">
<title>instagram_big</title>
<g data-name="Icons">
<g data-name="Instagram">
<g  data-name="Instagram_big">
<path d="M42,16.66a13.1,13.1,0,0,0-.84-4.37A9.18,9.18,0,0,0,35.87,7a13.38,13.38,0,0,0-4.37-.83c-1.92-.09-2.53-.11-7.42-.11s-5.5,0-7.42.11A13.38,13.38,0,0,0,12.29,7,9.24,9.24,0,0,0,7,12.29a13.38,13.38,0,0,0-.83,4.37c-.09,1.92-.11,2.53-.11,7.42s0,5.5.11,7.42A13.38,13.38,0,0,0,7,35.87a9.18,9.18,0,0,0,5.27,5.26,13.1,13.1,0,0,0,4.37.84c1.92.09,2.53.11,7.42.11s5.5,0,7.42-.11a13.1,13.1,0,0,0,4.37-.84,9.13,9.13,0,0,0,5.26-5.26A13.1,13.1,0,0,0,42,31.5c.09-1.92.11-2.53.11-7.42S42.06,18.58,42,16.66ZM38.73,31.35a9.93,9.93,0,0,1-.62,3.35,5.89,5.89,0,0,1-3.41,3.41,9.93,9.93,0,0,1-3.35.62c-1.89.09-2.46.11-7.27.11s-5.38,0-7.27-.11a9.93,9.93,0,0,1-3.35-.62,5.74,5.74,0,0,1-2.07-1.34,5.48,5.48,0,0,1-1.34-2.07,9.93,9.93,0,0,1-.62-3.35c-.09-1.9-.11-2.46-.11-7.27s0-5.38.11-7.27a9.93,9.93,0,0,1,.62-3.35,5.89,5.89,0,0,1,3.41-3.41,9.93,9.93,0,0,1,3.35-.62c1.89-.09,2.46-.11,7.27-.11s5.37,0,7.27.11a9.93,9.93,0,0,1,3.35.62,5.48,5.48,0,0,1,2.07,1.34,5.74,5.74,0,0,1,1.34,2.07,9.93,9.93,0,0,1,.62,3.35c.09,1.89.11,2.46.11,7.27S38.82,29.45,38.73,31.35Z"/>
<path d="m24.08 14.84a9.24 9.24 0 1 0 9.24 9.24 9.23 9.23 0 0 0 -9.24 -9.24zm0 15.24a6 6 0 1 1 6 -6 6 6 0 0 1 -6 6z"/>
<path d="m33.69 12.31a2.16 2.16 0 1 0 2.16 2.16 2.16 2.16 0 0 0 -2.16 -2.16z"/>
</g>
</g>
</g>
</svg>
