<svg xmlns="http://www.w3.org/2000/svg" viewBox="0 0 64 64"><circle cx="32" cy="32" r="32" /><path d="M52 23v-2h-8c-4.38 0-7 2.24-7 6v24h2V27c0-3.3 2.72-4 5-4zm-5 7.06h1V40h-1zm-5 9.334l2-9 .976.217-2 9zm8.015-8.792l.976-.217 2 9-.976.217zM52 25.5V24h-9v1.5a2.5 2.5 0 0 0 2.5 2.5h4a2.5 2.5 0 0 0 2.5-2.5zm-1 0a1.5 1.5 0 0 1-1.5 1.5h-4a1.5 1.5 0 0 1-1.5-1.5V25h7zm-23-5.12l-8 4v-4.1l-9 5.14V51h25V20.38l-8 4zM31 49H16v-3h15zm0-4H16v-3h15zm0-4H16v-3h15zm3-17.38V49h-2V37H15v12h-2V26.58l5-2.86v3.9l8-4v4z" /></svg>