<svg xmlns="http://www.w3.org/2000/svg" viewBox="0 0 64 64"><circle cx="32" cy="32" r="32" /><path d="M38.5 22a5.5 5.5 0 1 1-4.5 8.58 9.66 9.66 0 0 1-1 2 7.5 7.5 0 1 0 0-10.06 9.66 9.66 0 0 1 1 2A5.49 5.49 0 0 1 38.5 22zm13.3 20.6c-.17-.24-4.3-5.77-13.3-5.77a19.89 19.89 0 0 0-4.19.44A18.46 18.46 0 0 1 37 38.89c.48 0 1-.07 1.48-.07 7 0 10.65 3.7 11.5 4.7V46H40.5v2H52v-5.15zM25.5 35a7.5 7.5 0 1 0-7.5-7.5 7.5 7.5 0 0 0 7.5 7.5zm0-13a5.5 5.5 0 1 1-5.5 5.5 5.51 5.51 0 0 1 5.5-5.5zm0 14.82c-9 0-13.14 5.53-13.3 5.77l-.2.26V48h27v-5.15l-.2-.26c-.17-.24-4.3-5.77-13.3-5.77zM37 46H14v-2.47c.85-1 4.53-4.7 11.5-4.7s10.65 3.7 11.5 4.7z" /></svg>