<svg xmlns="http://www.w3.org/2000/svg" viewBox="0 0 64 64"><circle cx="32" cy="32" r="32" /><path d="M21.73 17.56a2 2 0 0 0-.31 2.8l.94 1.2-1.46 6.23.92 1.2-4.25 3.35-.6 5 4.24 5.36 1.78.2V48h-9v2h25v-2H25v-4.85l1.25.15 4.25-3.36.92 1.16h6.4l1 1.2a2 2 0 0 0 2.8.33l3.14-2.48-19.9-25.07zm18.6 23.53l-.93-1.18-12.3-15.58-.8.67 11.22 14.13H32.4l-1.56-2-5.16 4.08-.67-.07v-3.42a2 2 0 1 0-2.01 0v3.18l-.73-.08-3.2-4.06.4-3.4 4.38-3.46.77-.64-1.54-2 1.44-6.24-1.5-1.9 1.57-1.24 17.36 22zm-2.7-15.78l9.57-7.7.627.78-9.57 7.7zm4.15 4.768l9.333-4.544.438.9-9.333 4.544zm-8.27-9.495l6.097-8.4.8.587-6.097 8.4z" /></svg>