<svg xmlns="http://www.w3.org/2000/svg" viewBox="0 0 64 64"><circle cx="32" cy="32" r="32" /><path d="M19.05 20.5a.81.81 0 0 0-.73.35.87.87 0 0 0 0 .84L22 28.1l-5.7 10.28a.84.84 0 0 0 0 .84.76.76 0 0 0 .7.37h5.36a1.64 1.64 0 0 0 1.47-1.06L29.6 28.1l-3.7-6.57a1.67 1.67 0 0 0-1.5-1zM41.6 13a1.57 1.57 0 0 0-1.44 1L28.22 35.67 35.84 50a1.69 1.69 0 0 0 1.5 1h5.36a.79.79 0 0 0 .71-.35.86.86 0 0 0 0-.85l-7.57-14.1a0 0 0 0 1 0 0l11.88-21.5a.86.86 0 0 0 0-.84A.78.78 0 0 0 47 13z"  fill-rule="evenodd"/></svg>