<?xml version="1.0" encoding="utf-8"?>
<!-- Generator: Adobe Illustrator 23.0.3, SVG Export Plug-In . SVG Version: 6.00 Build 0)  -->
<svg version="1.1" xmlns="http://www.w3.org/2000/svg" xmlns:xlink="http://www.w3.org/1999/xlink" x="0px" y="0px"
	 viewBox="0 0 283.46 283.46" style="enable-background:new 0 0 283.46 283.46;" xml:space="preserve">
<style type="text/css">
	.st0{display:none;}
	.st1{display:inline;}
	.st2{fill:#199BD8;}
	.st3{fill:none;stroke:#199BD8;stroke-width:0.3;stroke-miterlimit:10;}
	.st4{fill:none;stroke:#199BD8;stroke-width:0.2984;stroke-miterlimit:10;}
	.st5{display:inline;opacity:0.5;}
	.st6{fill:#81CFF4;}
	.st7{display:inline;opacity:0.5;fill:none;}
	.st8{fill:#FFFFFF;}
	.st9{fill:#EA5B0C;}
	.st10{display:inline;fill:#FF6600;}
	.st11{fill:#FF6600;}
</style>
<g id="Measurement_1_" class="st0">
	<g class="st1">
		<path class="st2" d="M141.73,0.6c37.7,0,73.14,14.68,99.8,41.34c26.66,26.66,41.34,62.1,41.34,99.8c0,37.7-14.68,73.14-41.34,99.8
			c-26.66,26.66-62.1,41.34-99.8,41.34c-37.7,0-73.14-14.68-99.8-41.34c-26.66-26.66-41.34-62.1-41.34-99.8
			c0-37.7,14.68-73.14,41.34-99.8C68.59,15.28,104.03,0.6,141.73,0.6 M141.73,0C63.46,0,0,63.46,0,141.73
			c0,78.28,63.46,141.73,141.73,141.73c78.28,0,141.73-63.46,141.73-141.73C283.46,63.46,220.01,0,141.73,0L141.73,0z"/>
	</g>
	<g class="st1">
		<path class="st2" d="M282.87,0.6v282.27H0.6V0.6H282.87 M283.46,0H0v283.46h283.46V0L283.46,0z"/>
	</g>
	<g class="st1">
		<line class="st3" x1="0" y1="0" x2="283.46" y2="0"/>
		<line class="st3" x1="0" y1="35.43" x2="283.46" y2="35.43"/>
		<line class="st3" x1="0" y1="70.87" x2="283.46" y2="70.87"/>
		<line class="st3" x1="0" y1="106.3" x2="283.46" y2="106.3"/>
		<line class="st3" x1="0" y1="141.73" x2="283.46" y2="141.73"/>
		<line class="st3" x1="0" y1="177.17" x2="283.46" y2="177.17"/>
		<line class="st3" x1="0" y1="212.6" x2="283.46" y2="212.6"/>
		<line class="st3" x1="0" y1="248.03" x2="283.46" y2="248.03"/>
		<line class="st3" x1="0" y1="283.46" x2="283.46" y2="283.46"/>
	</g>
	<g class="st1">
		<line class="st4" x1="0" y1="283.33" x2="0" y2="0"/>
		<line class="st4" x1="35.43" y1="283.33" x2="35.43" y2="0"/>
		<line class="st4" x1="70.87" y1="283.33" x2="70.87" y2="0"/>
		<line class="st4" x1="106.3" y1="283.33" x2="106.3" y2="0"/>
		<line class="st4" x1="141.73" y1="283.33" x2="141.73" y2="0"/>
		<line class="st4" x1="177.17" y1="283.33" x2="177.17" y2="0"/>
		<line class="st4" x1="212.6" y1="283.33" x2="212.6" y2="0"/>
		<line class="st4" x1="248.03" y1="283.33" x2="248.03" y2="0"/>
		<line class="st4" x1="283.46" y1="283.33" x2="283.46" y2="0"/>
	</g>
	<g class="st5">
		<g>
			<path class="st6" d="M283.43,144.71c0.02-1.03,0.04-2.06,0.04-3.09s-0.02-2.06-0.04-3.09V35.44h0.03V-0.11h-0.03h-35.54H35.55H0
				v35.55v212.58v35.33v0.21h283.46v-35.55h-0.03V144.71z M150.21,248.13h-16.96c-51.39-4.04-92.55-44.47-97.71-95.54v-21.71
				c5.08-50.28,45.06-90.26,95.34-95.33h21.7c50.17,5.06,90.07,44.87,95.3,94.99v22.4C242.57,203.84,201.49,244.1,150.21,248.13z
				 M247.88,35.55v12.28c-3.84-4.34-7.95-8.44-12.29-12.28H247.88z M35.55,35.55h12.32c-4.36,3.85-8.47,7.97-12.32,12.32V35.55z
				 M35.55,235.59c3.92,4.43,8.12,8.62,12.56,12.54H35.55V235.59z M235.36,248.13c4.43-3.9,8.61-8.07,12.52-12.49v12.49H235.36z"/>
		</g>
	</g>
	<path class="st7" d="M283.46,35.55V0h-0.03h-35.54H35.55H0v35.55v212.58v35.33v0.21h283.46v-35.55h-0.03V35.55H283.46z
		 M247.88,248.13H35.55V35.55h212.33V248.13z"/>
	<g class="st5">
	</g>
</g>
<g id="Grid" class="st0">
	<g class="st1">
	</g>
	<g class="st1">
	</g>
</g>
<g id="Square_outline" class="st0">
	<g class="st1">
		<rect x="8.85" y="8.85" class="st8" width="265.77" height="265.77"/>
		<path class="st9" d="M265.76,17.7v248.06H17.7V17.7H265.76 M283.46,0H0v283.46h283.46V0L283.46,0z"/>
	</g>
</g>
<g id="Square_orange" class="st0">
	<rect class="st10" width="283.46" height="283.46"/>
</g>
<g id="Circle_orange" class="st0">
	<circle class="st10" cx="141.73" cy="141.73" r="141.73"/>
</g>
<g id="Circle_outline">
	<g>
		<circle class="st8" cx="141.73" cy="141.73" r="141.73"/>
	</g>
</g>
<g id="Layer_8">
	<g>
		<g>
			<path class="st11" d="M102.37,51.02l9.34,14.17l0.55-0.08c3.67-0.22,7.34-0.01,11.01,0.61l0.58,0.03l10.72-12.95
				c5.01,1.61,9.84,3.93,14.5,6.96l-3.37,16.57l0.49,0.4c2.78,2.47,5.19,5.18,7.22,8.14l0.42,0.54l16.8-1.54
				c1.37,2.58,2.44,5,3.23,7.25c0.77,2.18,1.45,4.77,2.04,7.78l-14.07,9.3l0.01,0.69c0.26,3.58,0.08,7.2-0.55,10.87l-0.13,0.62
				l12.99,10.82c-1.63,4.94-3.92,9.76-6.86,14.46l-16.6-3.47l-0.4,0.49c-2.47,2.78-5.2,5.23-8.21,7.36l-0.44,0.38l1.54,16.8
				c-2.67,1.32-5.14,2.38-7.38,3.17c-2.11,0.74-4.69,1.46-7.74,2.14l-9.3-14.07l-0.58-0.03c-3.74,0.24-7.41,0.04-11.01-0.61
				l-0.62-0.13L95.75,170.8c-4.87-1.66-9.67-3.99-14.4-7l3.37-16.57l-0.49-0.4c-2.69-2.42-5.13-5.12-7.32-8.1l-0.32-0.58l-16.9,1.57
				c-1.3-2.61-2.35-5.07-3.17-7.38c-0.72-2.04-1.42-4.59-2.11-7.64l14.17-9.34l-0.11-0.65c-0.22-3.67,0-7.31,0.65-10.91l0.13-0.62
				L56.27,92.36c1.57-4.91,3.85-9.73,6.86-14.46l16.57,3.37l0.44-0.38c2.47-2.78,5.21-5.23,8.21-7.36l0.47-0.28l-1.57-16.9
				c2.68-1.32,5.14-2.38,7.38-3.17C96.74,52.43,99.32,51.71,102.37,51.02z M93.23,119.5c2.12,6.03,6.08,10.44,11.88,13.22
				c5.8,2.78,11.73,3.11,17.79,0.98c6.07-2.13,10.49-6.09,13.27-11.89c2.78-5.8,3.12-11.72,1-17.75s-6.08-10.44-11.88-13.22
				s-11.73-3.11-17.8-0.98c-6.06,2.13-10.49,6.1-13.27,11.89S91.12,113.47,93.23,119.5z"/>
		</g>
	</g>
	<g>
		<path class="st11" d="M201.73,155.66c1.33,0.57,2.77,1.3,4.34,2.21l-1.62,10.16l0.28,0.19c1.73,1.41,3.29,3,4.67,4.78l0.25,0.25
			l10.16-1.38c1.63,2.98,2.82,5.99,3.57,9.02l-8.29,6.03l0.05,0.38c0.25,2.2,0.24,4.41-0.04,6.62l-0.09,0.39l8.2,6.21
			c-0.54,1.82-1.06,3.33-1.58,4.54c-0.58,1.37-1.32,2.82-2.21,4.34l-10.16-1.62l-0.21,0.34c-1.45,1.71-3.03,3.25-4.75,4.61
			l-0.31,0.23l1.38,10.16c-2.98,1.63-5.98,2.85-8.99,3.66l-6.01-8.35l-0.38,0.05c-2.2,0.25-4.43,0.23-6.68-0.07l-0.35-0.01
			l-6.19,8.14c-1.82-0.54-3.35-1.07-4.6-1.61c-1.33-0.57-2.78-1.3-4.34-2.21l1.6-10.1l-0.25-0.25c-1.73-1.41-3.29-3-4.67-4.78
			l-0.22-0.31l-10.18,1.44c-1.59-2.96-2.78-5.97-3.57-9.02l8.29-6.03l-0.05-0.38c-0.23-2.24-0.2-4.44,0.1-6.6l0.03-0.41l-8.14-6.19
			c0.48-1.79,0.99-3.33,1.55-4.62c0.57-1.33,1.32-2.75,2.24-4.25l10.1,1.6l0.28-0.31c1.35-1.71,2.91-3.26,4.69-4.64l0.31-0.22
			l-1.38-10.16c2.94-1.65,5.96-2.86,9.05-3.64l5.97,8.26l0.35,0.01c2.24-0.23,4.47-0.21,6.68,0.07l0.33,0.07l6.21-8.2
			C198.95,154.59,200.48,155.13,201.73,155.66z M200.03,185.06c-1.45-3.62-3.97-6.19-7.56-7.72c-3.58-1.53-7.19-1.57-10.81-0.11
			c-3.62,1.45-6.19,3.96-7.71,7.53c-1.52,3.56-1.55,7.16-0.1,10.78c1.45,3.62,3.97,6.19,7.56,7.72c3.58,1.53,7.18,1.57,10.8,0.11
			c3.62-1.45,6.19-3.96,7.71-7.53C201.46,192.28,201.49,188.68,200.03,185.06z"/>
	</g>
</g>
</svg>
