<svg xmlns="http://www.w3.org/2000/svg" viewBox="0 0 48 48" ><path d="M43.9 21.88l-.12-1.07-1-.5-3.3-1.7c-.2-.6-.45-1.17-.7-1.73l1.14-3.56.33-1-.68-.84a20.26 20.26 0 0 0-3-3l-.84-.68-1 .33-3.6 1.1-1.73-.7-1.7-3.33-.5-1-1.07-.12C25.4 4 24.7 4 24 4l-2.12.1-1.07.12-.5 1-1.7 3.3c-.6.2-1.17.45-1.73.7L13.3 8.1l-1-.33-.84.68a20.26 20.26 0 0 0-3 3l-.68.84.33 1 1.14 3.56-.7 1.73L5.2 20.3l-1 .5-.12 1.07C4 22.6 4 23.3 4 24l.1 2.12.12 1.07 1 .5 3.3 1.7c.2.6.45 1.17.7 1.73L8.1 34.7l-.33 1 .68.84a20.26 20.26 0 0 0 3 3l.84.68 1-.33 3.56-1.14 1.73.7 1.7 3.33.5 1 1.07.12c.75.1 1.46.1 2.15.1l2.12-.1 1.07-.12.5-1 1.7-3.33c.6-.2 1.17-.45 1.73-.7l3.56 1.14 1 .33.84-.68a20.26 20.26 0 0 0 3-3l.68-.84-.33-1-1.14-3.56.7-1.73 3.33-1.7 1-.5.12-1.07c.1-.7.1-1.42.1-2.1l-.1-2.12zm-2 4L37.82 28a14.32 14.32 0 0 1-1.21 3l1.4 4.3a18.14 18.14 0 0 1-2.7 2.7L31 36.6a14.32 14.32 0 0 1-3 1.21l-2.1 4.08-1.9.1c-.64 0-1.28 0-1.9-.1L20 37.82a14.32 14.32 0 0 1-2.94-1.21L12.7 38a18.14 18.14 0 0 1-2.7-2.7l1.4-4.3a14.32 14.32 0 0 1-1.21-3l-4.1-2.1C6 25.28 6 24.64 6 24s0-1.28.1-1.9l4.08-2.1a14.32 14.32 0 0 1 1.21-2.94L10 12.7a18.14 18.14 0 0 1 2.7-2.7l4.35 1.4A14.32 14.32 0 0 1 20 10.18l2.1-4.08C22.72 6 23.36 6 24 6s1.28 0 1.9.1l2.1 4.08a14.32 14.32 0 0 1 3 1.21l4.3-1.4a18.14 18.14 0 0 1 2.7 2.7l-1.4 4.35A14.32 14.32 0 0 1 37.82 20l4.08 2.1.1 1.9c0 .64 0 1.27-.1 1.9zM24 17a7 7 0 1 0 7 7 7 7 0 0 0-7-7zm0 12a5 5 0 1 1 5-5 5 5 0 0 1-5 5z"/></svg>