<svg xmlns="http://www.w3.org/2000/svg" viewBox="0 0 64 64"><circle cx="32" cy="32" r="32" /><path d="M37 35.53a15.92 15.92 0 0 1-1.49 1.35L47 48.4l1.4-1.4zm1.44-13.75a12.19 12.19 0 0 0-.44-1.15 11.82 11.82 0 0 0-1.16-2.12l-.7-1a12.41 12.41 0 0 0-1.7-1.7 12.51 12.51 0 0 0-15.9 0 11.81 11.81 0 0 0-1.69 1.7 8.58 8.58 0 0 0-.73 1A12.42 12.42 0 0 0 15 20.63a12.19 12.19 0 0 0-.42 1.15 12.5 12.5 0 1 0 23.88 0zM26.5 36a10.51 10.51 0 0 1-10-13.62l.35-1a11 11 0 0 1 1-1.78 10.81 10.81 0 0 1 2-2.23 10.51 10.51 0 0 1 13.36 0 10.81 10.81 0 0 1 2 2.23 11 11 0 0 1 1 1.78l.35 1A10.51 10.51 0 0 1 26.5 36z" /></svg>