<?xml version="1.0" encoding="utf-8"?>
<!-- Generator: Adobe Illustrator 23.0.3, SVG Export Plug-In . SVG Version: 6.00 Build 0)  -->
<svg version="1.1" xmlns="http://www.w3.org/2000/svg" xmlns:xlink="http://www.w3.org/1999/xlink" x="0px" y="0px"
	 viewBox="0 0 283.46 283.46" style="enable-background:new 0 0 283.46 283.46;" xml:space="preserve">
<style type="text/css">
	.st0{display:none;}
	.st1{display:inline;}
	.st2{fill:#199BD8;}
	.st3{fill:none;stroke:#199BD8;stroke-width:0.3;stroke-miterlimit:10;}
	.st4{fill:none;stroke:#199BD8;stroke-width:0.2984;stroke-miterlimit:10;}
	.st5{display:inline;opacity:0.5;}
	.st6{fill:#81CFF4;}
	.st7{display:inline;opacity:0.5;fill:none;}
	.st8{fill:#FFFFFF;}
	.st9{fill:#EA5B0C;}
	.st10{display:inline;fill:#FF6600;}
	.st11{fill:#FF6600;}
	.st12{fill:none;stroke:#FFFFFF;stroke-width:8.8583;stroke-miterlimit:10;}
</style>
<g id="Measurement_1_" class="st0">
	<g class="st1">
		<path class="st2" d="M141.73,0.6c37.7,0,73.14,14.68,99.8,41.34c26.66,26.66,41.34,62.1,41.34,99.8c0,37.7-14.68,73.14-41.34,99.8
			c-26.66,26.66-62.1,41.34-99.8,41.34c-37.7,0-73.14-14.68-99.8-41.34c-26.66-26.66-41.34-62.1-41.34-99.8
			c0-37.7,14.68-73.14,41.34-99.8C68.59,15.28,104.03,0.6,141.73,0.6 M141.73,0C63.46,0,0,63.46,0,141.73
			c0,78.28,63.46,141.73,141.73,141.73c78.28,0,141.73-63.46,141.73-141.73C283.46,63.46,220.01,0,141.73,0L141.73,0z"/>
	</g>
	<g class="st1">
		<path class="st2" d="M282.87,0.6v282.27H0.6V0.6H282.87 M283.46,0H0v283.46h283.46V0L283.46,0z"/>
	</g>
	<g class="st1">
		<line class="st3" x1="0" y1="0" x2="283.46" y2="0"/>
		<line class="st3" x1="0" y1="35.43" x2="283.46" y2="35.43"/>
		<line class="st3" x1="0" y1="70.87" x2="283.46" y2="70.87"/>
		<line class="st3" x1="0" y1="106.3" x2="283.46" y2="106.3"/>
		<line class="st3" x1="0" y1="141.73" x2="283.46" y2="141.73"/>
		<line class="st3" x1="0" y1="177.17" x2="283.46" y2="177.17"/>
		<line class="st3" x1="0" y1="212.6" x2="283.46" y2="212.6"/>
		<line class="st3" x1="0" y1="248.03" x2="283.46" y2="248.03"/>
		<line class="st3" x1="0" y1="283.46" x2="283.46" y2="283.46"/>
	</g>
	<g class="st1">
		<line class="st4" x1="0" y1="283.33" x2="0" y2="0"/>
		<line class="st4" x1="35.43" y1="283.33" x2="35.43" y2="0"/>
		<line class="st4" x1="70.87" y1="283.33" x2="70.87" y2="0"/>
		<line class="st4" x1="106.3" y1="283.33" x2="106.3" y2="0"/>
		<line class="st4" x1="141.73" y1="283.33" x2="141.73" y2="0"/>
		<line class="st4" x1="177.17" y1="283.33" x2="177.17" y2="0"/>
		<line class="st4" x1="212.6" y1="283.33" x2="212.6" y2="0"/>
		<line class="st4" x1="248.03" y1="283.33" x2="248.03" y2="0"/>
		<line class="st4" x1="283.46" y1="283.33" x2="283.46" y2="0"/>
	</g>
	<g class="st5">
		<g>
			<path class="st6" d="M283.43,144.71c0.02-1.03,0.04-2.06,0.04-3.09s-0.02-2.06-0.04-3.09V35.44h0.03V-0.11h-0.03h-35.54H35.55H0
				v35.55v212.58v35.33v0.21h283.46v-35.55h-0.03V144.71z M150.21,248.13h-16.96c-51.39-4.04-92.55-44.47-97.71-95.54v-21.71
				c5.08-50.28,45.06-90.26,95.34-95.33h21.7c50.17,5.06,90.07,44.87,95.3,94.99v22.4C242.57,203.84,201.49,244.1,150.21,248.13z
				 M247.88,35.55v12.28c-3.84-4.34-7.95-8.44-12.29-12.28H247.88z M35.55,35.55h12.32c-4.36,3.85-8.47,7.97-12.32,12.32V35.55z
				 M35.55,235.59c3.92,4.43,8.12,8.62,12.56,12.54H35.55V235.59z M235.36,248.13c4.43-3.9,8.61-8.07,12.52-12.49v12.49H235.36z"/>
		</g>
	</g>
	<path class="st7" d="M283.46,35.55V0h-0.03h-35.54H35.55H0v35.55v212.58v35.33v0.21h283.46v-35.55h-0.03V35.55H283.46z
		 M247.88,248.13H35.55V35.55h212.33V248.13z"/>
	<g class="st5">
	</g>
</g>
<g id="Grid" class="st0">
	<g class="st1">
	</g>
	<g class="st1">
	</g>
</g>
<g id="Square_outline" class="st0">
	<g class="st1">
		<rect x="8.85" y="8.85" class="st8" width="265.77" height="265.77"/>
		<path class="st9" d="M265.76,17.7v248.06H17.7V17.7H265.76 M283.46,0H0v283.46h283.46V0L283.46,0z"/>
	</g>
</g>
<g id="Square_orange" class="st0">
	<rect class="st10" width="283.46" height="283.46"/>
</g>
<g id="Circle_outline" class="st0">
	<g class="st1">
		
			<ellipse transform="matrix(0.7071 -0.7071 0.7071 0.7071 -58.7075 141.7325)" class="st8" cx="141.73" cy="141.73" rx="132.88" ry="132.88"/>
		<path class="st11" d="M141.73,17.7c33.13,0,64.28,12.9,87.7,36.33c23.43,23.43,36.33,54.57,36.33,87.7
			c0,33.13-12.9,64.28-36.33,87.7c-23.43,23.43-54.57,36.33-87.7,36.33c-33.13,0-64.28-12.9-87.7-36.33s-36.33-54.57-36.33-87.7
			s12.9-64.28,36.33-87.7C77.45,30.6,108.6,17.7,141.73,17.7 M141.73,0C63.46,0,0,63.46,0,141.73s63.46,141.73,141.73,141.73
			c78.28,0,141.73-63.46,141.73-141.73S220.01,0,141.73,0L141.73,0z"/>
	</g>
</g>
<g id="Circle_orange">
	<circle class="st11" cx="141.73" cy="141.73" r="141.73"/>
</g>
<g id="Tool_check">
	<g>
		<circle class="st12" cx="92.69" cy="104.22" r="31"/>
		<polyline class="st12" points="79.4,104.22 88.26,113.08 105.98,95.37 		"/>
	</g>
	<path class="st8" d="M221.69,101.46c-0.19-2.95-1.18-6.02-1.83-9.54c-1.07,1.07-1.57,1.57-2.12,2.12
		c-5.33,5.31-10.62,10.66-15.96,15.96c-6.31,6.27-15.6,6.44-21.63,0.42c0,0,0,0,0,0c-6.02-6.03-5.85-15.32,0.42-21.63
		c5.3-5.34,10.65-10.63,15.96-15.96c0.55-0.55,1.05-1.05,2.12-2.12c-3.52-0.65-6.58-1.64-9.54-1.83
		c-23.56-1.56-41.5,18.23-37.67,41.49c0.24,1.47-0.11,2.39-1.12,3.36c-1.48,1.42-2.92,2.89-4.4,4.41c-0.65,0.49-1.32,1.07-2.01,1.77
		l-62.87,63.04c-7.06,7.14-6.81,19.01,0.42,26.16c0.38-0.38,0.9-0.9,1.56-1.56c1.42-1.42,3.48-3.49,6.04-6.04
		c-1.44-1.51-2.33-3.54-2.34-5.76c0-4.54,3.79-8.29,8.39-8.28c2.21,0,4.21,0.88,5.69,2.29c0.89-0.89,1.8-1.8,2.72-2.72
		c4.4-4.4,9.21-9.21,14.22-14.22c-5.01,5.01-9.82,9.82-14.22,14.22c-0.93,0.93-1.83,1.83-2.72,2.72c1.41,1.48,2.29,3.48,2.29,5.69
		c0.01,4.6-3.74,8.39-8.28,8.39c-2.21,0-4.24-0.9-5.76-2.34c-2.55,2.55-4.61,4.61-6.04,6.04c-0.66,0.66-1.18,1.18-1.56,1.56
		c7.16,7.23,19.03,7.48,26.16,0.42l63.04-62.87c0.69-0.69,1.27-1.36,1.77-2.01c1.52-1.48,2.99-2.92,4.41-4.4
		c0.97-1.02,1.89-1.37,3.36-1.12C203.47,142.96,223.25,125.02,221.69,101.46z"/>
</g>
</svg>
