<svg xmlns="http://www.w3.org/2000/svg" viewBox="0 0 48 48" ><path d="M12.17 33.15A2.75 2.75 0 0 0 13 33a1.73 1.73 0 0 0 .64-.35 1.63 1.63 0 0 0 .42-.6 2.56 2.56 0 0 0 .14-.87 2.74 2.74 0 0 0-.09-.7 1.86 1.86 0 0 0-.29-.62 1.51 1.51 0 0 0-.55-.44 1.86 1.86 0 0 0-.83-.16h-2.26v6.42h1.3v-2.53zm-.7-2.9H12a.88.88 0 0 1 .69.25 1.14 1.14 0 0 1 .21.74 1 1 0 0 1-.24.73.85.85 0 0 1-.63.23h-.57zm7.68 4.65a2.77 2.77 0 0 0 .36-1 9.09 9.09 0 0 0 .1-1.47 8.58 8.58 0 0 0-.08-1.29 2.57 2.57 0 0 0-.31-1 1.5 1.5 0 0 0-.64-.63 2.3 2.3 0 0 0-1.09-.22h-2.12v6.42h2a2.56 2.56 0 0 0 1.07-.19 1.58 1.58 0 0 0 .71-.62zm-.87-1.37a2.41 2.41 0 0 1-.16.72.9.9 0 0 1-.33.38 1.09 1.09 0 0 1-.55.12h-.58v-4.52h.55a1.12 1.12 0 0 1 .59.14.8.8 0 0 1 .33.41 2.2 2.2 0 0 1 .15.69 9.29 9.29 0 0 1 0 1c.04.4.02.77 0 1.06zm6.22-3.18V29.3h-3.6v6.42h1.3v-2.8h2.17v-1.06H22.2v-1.5h2.3zM26.05 4H10v22h2V6h13v10.87L36 17v25H12v-3h-2v5h28V16zM27 14.9V7.75L34.17 15z"/></svg>