<svg xmlns="http://www.w3.org/2000/svg" viewBox="0 0 32 32"><circle cx="16" cy="16" r="16" /><path d="M16 12.5a3.5 3.5 0 1 0 3.5 3.5 3.5 3.5 0 0 0-3.5-3.5zm0 6a2.5 2.5 0 1 1 2.5-2.5 2.5 2.5 0 0 1-2.5 2.5zm9.45-3.5l-.1-.8-.72-.37-1.27-.66-.15-.37.68-2.13-.5-.67A8.79 8.79 0 0 0 22 8.61l-.62-.5-.78.25-1.35.43-.37-.15-.66-1.27-.37-.72-.85-.1h-2l-.8.1-.37.72-.66 1.27-.37.15-2.13-.68-.67.5A8.79 8.79 0 0 0 8.61 10l-.5.62.25.78.43 1.35-.15.37-1.27.66-.72.37-.1.8v2l.1.8.72.37 1.27.66.15.37-.43 1.35-.25.78.5.62A8.79 8.79 0 0 0 10 23.39l.62.5.78-.25 1.35-.43.37.15.66 1.27.37.72.8.1c.35 0 .68.05 1 .05s.66 0 1-.05l.8-.1.37-.72.66-1.27.37-.15 1.35.43.78.25.62-.5A8.79 8.79 0 0 0 23.39 22l.5-.62-.25-.78-.43-1.35.15-.37 1.27-.66.72-.37.1-.8c0-.34.05-.68.05-1L25.45 15zM24 16.85l-1.8.93a6 6 0 0 1-.54 1.31l.57 1.9a7.57 7.57 0 0 1-1.2 1.2l-1.93-.62a6 6 0 0 1-1.31.54l-.94 1.9a7.25 7.25 0 0 1-1.7 0l-.93-1.8a6 6 0 0 1-1.31-.54l-1.9.57A7.57 7.57 0 0 1 9.78 21l.62-1.93a6 6 0 0 1-.54-1.31l-1.8-.93a7.25 7.25 0 0 1 0-1.7l1.8-.93a6 6 0 0 1 .54-1.31L9.78 11A7.57 7.57 0 0 1 11 9.78l1.93.62a6 6 0 0 1 1.31-.54l.93-1.8a7.25 7.25 0 0 1 1.7 0l.93 1.8a6 6 0 0 1 1.31.54l1.9-.62a7.57 7.57 0 0 1 1.2 1.2l-.62 1.93a6 6 0 0 1 .54 1.31l1.8.93a7.25 7.25 0 0 1 0 1.7z" /></svg>