<svg xmlns="http://www.w3.org/2000/svg" viewBox="0 0 48 48"><path d="M24 4a20 20 0 0 0-7.29 38.62 19.36 19.36 0 0 1 .07-5.73l2.35-9.95a7.14 7.14 0 0 1-.6-3c0-2.8 1.6-4.86 3.62-4.86a2.52 2.52 0 0 1 2.53 2.82c0 1.7-1.1 4.28-1.66 6.65a2.91 2.91 0 0 0 3 3.62c3.56 0 6.3-3.75 6.3-9.16 0-4.8-3.44-8.14-8.36-8.14a8.66 8.66 0 0 0-9 8.68 7.83 7.83 0 0 0 1.48 4.57.58.58 0 0 1 .14.57l-.55 2.27c-.06.27-.3.44-.67.27-2.5-1.17-4.06-4.82-4.06-7.75 0-6.3 4.58-12.1 13.2-12.1 6.94 0 12.33 4.94 12.33 11.55 0 6.9-4.35 12.44-10.38 12.44a5.36 5.36 0 0 1-4.58-2.3l-1.25 4.75a22.52 22.52 0 0 1-2.48 5.25A20 20 0 1 0 24 4z"  fill-rule="evenodd"/></svg>