<?xml version="1.0" encoding="UTF-8"?>
<svg viewBox="0 0 24 24" xmlns="http://www.w3.org/2000/svg">
<title>phone_small</title>
<g data-name="Icons">
<g data-name="Phone">
<g data-name="Phone_small">
<path d="M8.5,5a.78.78,0,0,1,.78.78,8.73,8.73,0,0,0,.44,2.77.79.79,0,0,1-.19.8L7.82,11.06a11.73,11.73,0,0,0,5.12,5.12l1.71-1.71a.77.77,0,0,1,.55-.22.73.73,0,0,1,.25,0,9.07,9.07,0,0,0,2.77.44.78.78,0,0,1,.78.78v2.71a.78.78,0,0,1-.78.78A13.22,13.22,0,0,1,5,5.78.78.78,0,0,1,5.78,5H8.5m0-2H5.78A2.79,2.79,0,0,0,3,5.78,15.24,15.24,0,0,0,18.22,21,2.79,2.79,0,0,0,21,18.22V15.51a2.79,2.79,0,0,0-2.78-2.78,7.06,7.06,0,0,1-2.15-.34,2.69,2.69,0,0,0-.87-.14,2.76,2.76,0,0,0-2,.81l-.61.6a10,10,0,0,1-2.29-2.29l.6-.61A2.77,2.77,0,0,0,11.63,8a6.81,6.81,0,0,1-.35-2.18A2.79,2.79,0,0,0,8.5,3Z"  data-name="Phone_big"/>
</g>
</g>
</g>
</svg>
