<svg xmlns="http://www.w3.org/2000/svg" viewBox="0 0 48 48" ><path d="M26.05 4H10v22h2V6h13v10.87L36 17v25H12v-3h-2v5h28V16zM27 14.9V7.75L34.17 15zM13.85 34.65H11.4l2.4-4.38v-.98h-3.7v1.06h2.2l-2.36 4.42v.94h3.9v-1.06zm1.25-5.35h1.3v6.43h-1.3zm4.95 3.85a2.73 2.73 0 0 0 .83-.12 1.77 1.77 0 0 0 .65-.35 1.73 1.73 0 0 0 .41-.6 2.33 2.33 0 0 0 .15-.87 2.74 2.74 0 0 0-.09-.7 1.7 1.7 0 0 0-.3-.62 1.56 1.56 0 0 0-.54-.44 1.94 1.94 0 0 0-.84-.16h-2.26v6.42h1.3v-2.56zm-.7-2.9h.54a.85.85 0 0 1 .69.25 1.14 1.14 0 0 1 .21.74 1 1 0 0 1-.24.73.82.82 0 0 1-.62.23h-.58z"/></svg>