<svg xmlns="http://www.w3.org/2000/svg" viewBox="0 0 24 24" ><path d="M14.4 2H4v8h2V4h7v5.92l5 .08v10H6v-1H4v3h16V7.6zM18 9l-4-.06V4.42l4 4zM6.96 16.17H5.1l1.82-3.4V12h-2.8v.83H5.8L4 16.27V17h2.96v-.83zM8 12h1v5H8zm3.5 3a2.15 2.15 0 0 0 .64-.09 1.25 1.25 0 0 0 .48-.27 1.23 1.23 0 0 0 .32-.47 1.92 1.92 0 0 0 .11-.67A2 2 0 0 0 13 13a1.32 1.32 0 0 0-.22-.48 1.28 1.28 0 0 0-.42-.34 1.34 1.34 0 0 0-.63-.13H10v5h1V15zm-.5-2.26h.4a.64.64 0 0 1 .53.2.92.92 0 0 1 .16.57.78.78 0 0 1-.18.57.65.65 0 0 1-.48.18H11z"/></svg>