<svg xmlns="http://www.w3.org/2000/svg" viewBox="0 0 24 24" ><path d="M21.8 9.37l-2.03-1.3-1.45 1.45.88.56-1 1.93 1 1.93-1.82 1.18-.1 2.16-2.16.1-1.18 1.82-1.93-1-1.93 1-1.18-1.82-2.16-.1-.1-2.16-1.82-1.18 1-1.93-1-1.93 1.8-1.18.1-2.16 2.16-.1 1.18-1.82 1.93 1 1.93-1 1.18 1.82.42.02 1.9-1.9-1.2-.06-1.6-2.48L12 3.54 9.37 2.2l-1.6 2.48-2.95.14-.14 2.95-2.48 1.6L3.54 12 2.2 14.63l2.48 1.6.14 2.95 2.95.14 1.6 2.48L12 20.46l2.63 1.34 1.6-2.48 2.95-.14.14-2.95 2.48-1.6L20.46 12l1.34-2.63zM9.2 8.8l-1.4 1.4 4.2 4.2 8.2-8.2-1.4-1.4-6.8 6.8-2.8-2.8z"/></svg>