<svg xmlns="http://www.w3.org/2000/svg" viewBox="0 0 48 48" ><path d="M13.73 9.56a2 2 0 0 0-.31 2.8l.94 1.2-1.46 6.23.92 1.2-4.25 3.3-.6 5 4.24 5.36 1.78.2V40H6v2h25v-2H17v-4.85l1.25.15 4.25-3.36.92 1.16h6.4l.95 1.2a2 2 0 0 0 2.8.33l3.14-2.48L16.87 7.07zm18.6 23.53l-.93-1.18-12.3-15.58-.8.67 11.22 14.13H24.4l-1.56-2-5.16 4.08-.67-.07v-3.42a2 2 0 1 0-2.01 0v3.18l-.73-.08-3.2-4.06.4-3.4 4.38-3.46.77-.64-1.54-2 1.44-6.24-1.54-2 1.57-1.24 17.36 22zm-2.7-15.78l9.57-7.7.627.78-9.57 7.7zm4.156 4.767l9.333-4.544.438.9-9.333 4.544zm-8.278-9.497l6.097-8.4.8.587-6.097 8.4z"/></svg>