<svg id="a6c384a7-821d-454e-92d8-5595fcffccb4" data-name="B2B Shop Lighting" xmlns="http://www.w3.org/2000/svg" viewBox="0 0 283.46 283.46"><title>B2B Shop Lighting desktop negative-no-circle-01</title><path d="M146.1338,168.3066V203.74h-8.8027V168.3066ZM124.0156,221.35h35.4336v-8.8574H124.0156ZM176.5537,86.167c-4.6035,7.8169-7.3525,19.9092-7.3525,32.3476,0,12.441,2.748,24.5333,7.3515,32.3467l.6123,1.04v7.5478l-70.8657-.0019v-7.545l.6128-1.041c4.6025-7.8144,7.3506-19.9062,7.3506-32.3467,0-12.4389-2.7485-24.5317-7.3521-32.3471l-.6127-1.0405V70.8677h16.8652l1.0825,2.8623c2.5962,6.8647,9.6235,11.477,17.4868,11.477s14.89-4.6123,17.4864-11.477l1.082-2.8623H177.166V85.127Zm-8.2451-6.4409h-2.0967a28.0653,28.0653,0,0,1-48.96,0h-2.0962v3.021c5.0723,9.2036,7.9649,22.1474,7.9649,35.7675,0,11.8858-2.2026,23.2569-6.1333,32.0752h49.4888c-3.9307-8.8178-6.1328-20.1879-6.1328-32.0752,0-13.6191,2.8925-26.5634,7.9648-35.7675Z" /></svg>