<?xml version="1.0" encoding="UTF-8"?>
<svg viewBox="0 0 64 64" xmlns="http://www.w3.org/2000/svg">
<title>instagram_big</title>
<g data-name="Icons">
<g data-name="Instagram">
<g data-name="Instagram_big">
<circle cx="32" cy="32" r="32"  data-name="circle_bg_big"/>
<path d="M49.89,24.58a13.1,13.1,0,0,0-.84-4.37A8.85,8.85,0,0,0,47,17,8.72,8.72,0,0,0,43.79,15a13.1,13.1,0,0,0-4.37-.84C37.5,14,36.89,14,32,14s-5.5,0-7.42.11a13.1,13.1,0,0,0-4.37.84A8.72,8.72,0,0,0,17,17,8.85,8.85,0,0,0,15,20.21a13.1,13.1,0,0,0-.84,4.37C14,26.5,14,27.11,14,32s0,5.5.11,7.42A13.1,13.1,0,0,0,15,43.79,8.85,8.85,0,0,0,17,47a8.72,8.72,0,0,0,3.19,2.07,13.1,13.1,0,0,0,4.37.84C26.5,50,27.11,50,32,50s5.5,0,7.42-.11a13.1,13.1,0,0,0,4.37-.84A8.72,8.72,0,0,0,47,47a8.85,8.85,0,0,0,2.07-3.19,13.1,13.1,0,0,0,.84-4.37C50,37.5,50,36.89,50,32S50,26.5,49.89,24.58ZM46.65,39.27A9.93,9.93,0,0,1,46,42.62,5.89,5.89,0,0,1,42.62,46a9.93,9.93,0,0,1-3.35.62c-1.89.09-2.46.11-7.27.11s-5.38,0-7.27-.11A9.93,9.93,0,0,1,21.38,46,5.89,5.89,0,0,1,18,42.62a9.93,9.93,0,0,1-.62-3.35c-.09-1.89-.11-2.46-.11-7.27s0-5.38.11-7.27A9.93,9.93,0,0,1,18,21.38,5.89,5.89,0,0,1,21.38,18a9.93,9.93,0,0,1,3.35-.62c1.89-.09,2.46-.11,7.27-.11s5.38,0,7.27.11a9.93,9.93,0,0,1,3.35.62A5.89,5.89,0,0,1,46,21.38a9.93,9.93,0,0,1,.62,3.35c.09,1.89.11,2.46.11,7.27S46.74,37.38,46.65,39.27Z" />
<path d="M32,22.76A9.24,9.24,0,1,0,41.24,32,9.24,9.24,0,0,0,32,22.76ZM32,38a6,6,0,1,1,6-6A6,6,0,0,1,32,38Z" />
<path d="m41.61 20.23a2.16 2.16 0 1 0 2.16 2.16 2.16 2.16 0 0 0 -2.16 -2.16z" />
</g>
</g>
</g>
</svg>
